<?xml version="1.0" encoding="utf-8"?>
<!-- Generator: Adobe Illustrator 26.0.1, SVG Export Plug-In . SVG Version: 6.00 Build 0)  -->
<svg version="1.1" id="Layer_1" xmlns="http://www.w3.org/2000/svg" xmlns:xlink="http://www.w3.org/1999/xlink" x="0px" y="0px"
	 viewBox="0 0 100 100" style="enable-background:new 0 0 100 100;" xml:space="preserve">
<style type="text/css">
	.st0{fill:#E3C896;}
	.st1{fill:#B78D46;}
</style>
<path class="st0" d="M32.4,87.2c-1.2,0-2.1-0.9-2.1-2.1s0.9-2.1,2.1-2.1h19.2c1.2,0,2.1,0.9,2.1,2.1s-0.9,2.1-2.1,2.1H32.4z"/>
<path class="st0" d="M32.4,78.7c-1.2,0-2.1-0.9-2.1-2.1c0-1.2,0.9-2.1,2.1-2.1h12.8c1.2,0,2.1,0.9,2.1,2.1c0,1.2-0.9,2.1-2.1,2.1
	H32.4z"/>
<path class="st0" d="M24.9,74.4h-8.5c-1.2,0-2.1,0.9-2.1,2.1v8.5c0,1.2,0.9,2.1,2.1,2.1h8.5c1.2,0,2.1-0.9,2.1-2.1v-8.5
	C27,75.4,26.1,74.4,24.9,74.4z M22.8,82.9h-4.3v-4.3h4.3V82.9z"/>
<path class="st0" d="M32.4,69.4c-1.2,0-2.1-0.9-2.1-2.1c0-1.2,0.9-2.1,2.1-2.1h10.6c1.2,0,2.1,0.9,2.1,2.1c0,1.2-0.9,2.1-2.1,2.1
	H32.4z"/>
<path class="st0" d="M32.4,60.9c-1.2,0-2.1-0.9-2.1-2.1c0-1.2,0.9-2.1,2.1-2.1h15.1c1.2,0,2.1,0.9,2.1,2.1c0,1.2-0.9,2.1-2.1,2.1
	H32.4z"/>
<path class="st0" d="M24.9,56.7h-8.5c-1.2,0-2.1,0.9-2.1,2.1v8.5c0,1.2,0.9,2.1,2.1,2.1h8.5c1.2,0,2.1-0.9,2.1-2.1v-8.5
	C27,57.6,26.1,56.7,24.9,56.7z M22.8,65.2h-4.3v-4.3h4.3V65.2z"/>
<path class="st0" d="M32.4,51.7c-1.2,0-2.1-0.9-2.1-2.1c0-1.2,0.9-2.1,2.1-2.1h36.2c1.2,0,2.1,0.9,2.1,2.1c0,1.2-0.9,2.1-2.1,2.1
	H32.4z"/>
<path class="st0" d="M32.4,43.1c-1.2,0-2.1-0.9-2.1-2.1c0-1.2,0.9-2.1,2.1-2.1h15.1c1.2,0,2.1,0.9,2.1,2.1c0,1.2-0.9,2.1-2.1,2.1
	H32.4z"/>
<path class="st0" d="M24.9,38.9h-8.5c-1.2,0-2.1,0.9-2.1,2.1v8.5c0,1.2,0.9,2.1,2.1,2.1h8.5c1.2,0,2.1-0.9,2.1-2.1V41
	C27,39.8,26.1,38.9,24.9,38.9z M22.8,47.4h-4.3v-4.3h4.3V47.4z"/>
<path class="st0" d="M16.4,33.9c-1.2,0-2.1-0.9-2.1-2.1c0-1.2,0.9-2.1,2.1-2.1h52.2c1.2,0,2.1,0.9,2.1,2.1c0,1.2-0.9,2.1-2.1,2.1
	H16.4z"/>
<path class="st0" d="M16.4,25.5c-1.2,0-2.1-0.9-2.1-2.1c0-1.2,0.9-2.1,2.1-2.1h52.2c1.2,0,2.1,0.9,2.1,2.1c0,1.2-0.9,2.1-2.1,2.1
	H16.4z"/>
<path class="st0" d="M49.9,17.1c-1.2,0-2.1-0.9-2.1-2.1s0.9-2.1,2.1-2.1h2.9c1.2,0,2.1,0.9,2.1,2.1c0,1.2-0.9,2.1-2.1,2.1H49.9z"/>
<path class="st0" d="M16.4,17.1c-1.2,0-2.1-0.9-2.1-2.1s0.9-2.1,2.1-2.1h26c1.2,0,2.1,0.9,2.1,2.1s-0.9,2.1-2.1,2.1H16.4z"/>
<path d="M78.2,15.4l-8-8v3.8c0,1.1,0.5,2.2,1.2,2.9c0.7,0.8,1.8,1.2,2.9,1.2L78.2,15.4L78.2,15.4z"/>
<path class="st0" d="M81.7,77.6l-1,1.2v13.9c0,0.6-0.2,1.1-0.6,1.5c-0.4,0.4-0.9,0.6-1.5,0.6H6.3c-0.6,0-1.1-0.2-1.5-0.6
	c-0.4-0.4-0.6-0.9-0.6-1.5V7.3c0-0.6,0.2-1.1,0.6-1.5c0.4-0.4,0.9-0.6,1.5-0.6H66v6c0,2.3,0.9,4.4,2.5,5.9c1.5,1.5,3.6,2.5,5.9,2.5
	h6.3v18c1.4-0.3,2.8-0.7,4.2-0.8V19.6c0-2.3-0.9-4.3-2.5-5.9L72.3,3.5c-0.8-0.8-1.7-1.4-2.7-1.8c-1-0.4-2.1-0.6-3.2-0.6h-60
	C4.6,1,3,1.7,1.8,2.8C0.7,4,0,5.6,0,7.3v85.4c0,1.7,0.7,3.3,1.8,4.5C3,98.3,4.6,99,6.3,99h72.3c1.7,0,3.3-0.7,4.5-1.8
	c1.1-1.1,1.8-2.7,1.8-4.5V73.6L81.7,77.6z"/>
<path class="st1" d="M95.8,43.1c-2.8-2.8-6.4-4.2-10.1-4.2c-0.3,0-0.5,0-0.8,0v-0.1c-1.4,0.1-2.8,0.5-4.2,0.8v0.2
	c-1.8,0.7-3.6,1.8-5.1,3.3c-1.3,1.3-2.3,2.8-3,4.3c-0.7,1.6-1.1,3.2-1.2,4.9l0,0c0,0.5-0.1,0.8-0.3,1.3c-0.2,0.3-0.4,0.6-0.7,0.9
	l-6.6,5.1c-0.4,0.3-0.8,0.5-1.2,0.5c-0.4,0.1-0.9,0-1.3-0.1c-2.3-0.8-4.5-1.2-6.4-1c-2.1,0.2-3.9,0.9-5.3,2.3
	c-2.5,2.5-2.9,6.3-1.6,10.5c1.1,3.8,3.7,8,7.4,11.7c3.7,3.7,7.9,6.3,11.7,7.4c4.2,1.3,8.1,0.8,10.5-1.6c1.4-1.4,2.1-3.2,2.3-5.3
	c0.2-1.9-0.2-4.1-1-6.4c-0.2-0.4-0.2-0.9-0.2-1.3c0-0.3,0.1-0.5,0.3-0.8L79,75.4l0.7-0.8l1-1.3v0.1l4.2-5.2v-0.2l0,0
	c0.1-0.1,0.2-0.1,0.3-0.2c0.4-0.2,0.8-0.3,1.3-0.3c1.7-0.1,3.4-0.5,4.9-1.2c1.6-0.7,3-1.7,4.3-3c2.8-2.8,4.2-6.4,4.2-10.1
	C100,49.5,98.6,45.9,95.8,43.1z M75,86c-0.1,0.1-0.2,0.2-0.2,0.3c-1.3,1.3-3.6,1.4-6.3,0.6c-3.2-1-6.7-3.2-9.9-6.4
	c-3.2-3.2-5.4-6.8-6.4-9.9c-0.8-2.7-0.7-5.1,0.6-6.3c0.1-0.1,0.2-0.2,0.3-0.2c0.9,5.7,3.6,10.7,7.4,14.6C64.2,82.4,69.3,85.1,75,86
	C75,86,75,86,75,86L75,86C75,86,75,86,75,86z M80.7,66.4L76,72.5c-0.7,0.9-1.2,2-1.4,3.1c-0.2,1.1-0.1,2.3,0.4,3.4
	c0.4,1,0.6,1.9,0.7,2.8c-4.8-0.7-9.1-3-12.4-6.3c-3.3-3.3-5.5-7.6-6.3-12.4l0,0c0.9,0.1,1.8,0.4,2.8,0.7c1.1,0.4,2.3,0.5,3.4,0.4
	c1.1-0.2,2.2-0.6,3.1-1.4l6.6-5.1l0,0c0.9,1.7,2,3.3,3.4,4.7c1.3,1.3,2.7,2.3,4.3,3.2V66.4z M92.8,60.3c-0.9,0.9-1.9,1.6-3,2.1
	c-3.9,1.7-7.5,0-10.3-2.9l0,0c-2.8-2.8-4.6-6.5-2.9-10.3c0.5-1.1,1.2-2.1,2.1-3c2-2,4.5-2.9,7.1-2.9c2.6,0,5.1,1,7.1,2.9
	c2,2,2.9,4.5,2.9,7.1C95.8,55.8,94.8,58.3,92.8,60.3z"/>
</svg>
