<?xml version="1.0" encoding="utf-8"?>
<!-- Generator: Adobe Illustrator 26.0.1, SVG Export Plug-In . SVG Version: 6.00 Build 0)  -->
<svg version="1.1" id="Layer_1" xmlns="http://www.w3.org/2000/svg" xmlns:xlink="http://www.w3.org/1999/xlink" x="0px" y="0px"
	 viewBox="0 0 100 100" style="enable-background:new 0 0 100 100;" xml:space="preserve">
<style type="text/css">
	.st0{fill:#E3C896;}
	.st1{fill:#B78D46;}
</style>
<path class="st0" d="M11.9,80c0-1.4,1.1-2.5,2.5-2.5h34.1c1.4,0,2.5,1.1,2.5,2.5s-1.1,2.5-2.5,2.5H14.4C13.1,82.5,11.9,81.4,11.9,80
	z"/>
<path class="st0" d="M12,92.9h47c5.9,0,10.6-4.7,10.6-10.6v-5.7c-1.6,0.7-3.3,1.3-5,1.7v4c0,3.1-2.5,5.6-5.6,5.6H12
	c-3.1,0-5.6-2.5-5.6-5.6V30.8h8.9c5.8,0,10.6-4.8,10.6-10.6v-8.1H59c3.1,0,5.6,2.5,5.6,5.6v5.7c1.7,0.4,3.4,1,5,1.7v-7.4
	c0-5.9-4.7-10.6-10.6-10.6H24.3c-0.6,0-1.2,0.1-1.8,0.3c-0.6,0.2-1.1,0.6-1.5,1L2.8,25.9c-0.5,0.4-0.8,1-1.1,1.6s-0.4,1.2-0.4,1.9
	v53C1.4,88.1,6.1,92.9,12,92.9z"/>
<path class="st0" d="M36.8,32.5c0.5-0.5,1-1.1,1.5-1.6c1.3-1.3,2.7-2.4,4.1-3.4h-9.1c-1.4,0-2.5,1.1-2.5,2.5s1.1,2.5,2.5,2.5H36.8z"
	/>
<path class="st0" d="M14.6,72.5h25.5c-0.7-0.5-1.3-1.1-1.9-1.7c-1-1-2-2.1-2.8-3.3H14.6c-1.4,0-2.5,1.1-2.5,2.5S13.3,72.5,14.6,72.5
	z"/>
<path class="st0" d="M12.1,60c0,1.4,1.1,2.5,2.5,2.5h17.9c-0.7-1.6-1.3-3.3-1.7-5H14.6C13.3,57.5,12.1,58.6,12.1,60L12.1,60z"/>
<path class="st0" d="M14.6,52.5H30c0-0.6-0.1-1.1-0.1-1.7c0-1.1,0.1-2.2,0.2-3.3H14.6c-1.4,0-2.5,1.1-2.5,2.5S13.3,52.5,14.6,52.5z"
	/>
<path class="st0" d="M12.1,40c0,1.4,1.1,2.5,2.5,2.5h16.6c0.5-1.7,1.2-3.4,2.1-5H14.6C13.3,37.5,12.1,38.6,12.1,40z"/>
<path class="st1" d="M97.4,83.8L80.1,66.5l-0.9,0.9l-2.5-2.5c6.9-9.1,6.2-22.1-2.1-30.4c-4.5-4.5-10.5-6.8-16.4-6.8
	c-6,0-11.9,2.2-16.4,6.7c-9.1,9.1-9.1,23.7,0,32.8c4.5,4.5,10.5,6.8,16.4,6.8c4.9,0,9.9-1.6,14-4.7l2.5,2.5l-0.9,0.9L91.2,90
	c0.9,0.9,2,1.3,3.1,1.3c1.1,0,2.2-0.4,3.1-1.3C99.1,88.3,99.1,85.5,97.4,83.8z M70.3,62.9c-3.3,3.3-7.7,5-12.1,5
	c-4.4,0-8.8-1.7-12.1-5c-6.7-6.7-6.7-17.5,0-24.2c3.3-3.3,7.7-5,12.1-5c4.4,0,8.7,1.7,12.1,5C77,45.4,77,56.2,70.3,62.9z"/>
<path class="st1" d="M51.6,56.6l1.3,1.3l0.4,0.4c1,1,2.6,1,3.5,0l11.5-11.5c1-1,1-2.6,0-3.5c-1-1-2.6-1-3.5,0L55.2,53l-3.7-3.7
	c-1-1-2.6-1-3.5,0c-1,1-1,2.6,0,3.5L51.6,56.6z"/>
</svg>
