<?xml version="1.0" encoding="utf-8"?>
<!-- Generator: Adobe Illustrator 26.0.1, SVG Export Plug-In . SVG Version: 6.00 Build 0)  -->
<svg version="1.1" id="Layer_1" xmlns="http://www.w3.org/2000/svg" xmlns:xlink="http://www.w3.org/1999/xlink" x="0px" y="0px"
	 viewBox="0 0 36 36" style="enable-background:new 0 0 36 36;" xml:space="preserve">
<style type="text/css">
	.st0{fill:#B78D46;}
</style>
<g>
	<path class="st0" d="M1.3,35.9h24.8c0.3,0,0.6-0.3,0.6-0.6V0.6c0-0.3-0.3-0.6-0.6-0.6H1.3C0.9,0,0.6,0.3,0.6,0.6v34.7
		C0.6,35.7,0.9,35.9,1.3,35.9z M1.9,1.2h23.6v33.5H1.9V1.2z"/>
	<path class="st0" d="M31.7,35.5c0.1,0.2,0.3,0.4,0.6,0.4s0.5-0.2,0.6-0.4l2.5-7.4c0-0.1,0-0.1,0-0.2V3.1C35.4,1.4,34,0,32.3,0
		s-3.1,1.4-3.1,3.1v24.8c0,0.1,0,0.1,0,0.2L31.7,35.5z M32.3,33.4l-1.6-4.9h3.2L32.3,33.4z M30.4,3.1c0-1,0.8-1.9,1.9-1.9
		c1,0,1.9,0.8,1.9,1.9v24.2h-3.7V3.1z"/>
	<path class="st0" d="M6.2,4.9H3.7c-0.3,0-0.6,0.3-0.6,0.6c0,0.3,0.3,0.6,0.6,0.6h2.5c0.3,0,0.6-0.3,0.6-0.6S6.6,4.9,6.2,4.9z"/>
	<path class="st0" d="M6.2,9.9H3.7c-0.3,0-0.6,0.3-0.6,0.6c0,0.3,0.3,0.6,0.6,0.6h2.5c0.3,0,0.6-0.3,0.6-0.6
		C6.8,10.2,6.6,9.9,6.2,9.9z"/>
	<path class="st0" d="M6.2,14.9H3.7c-0.3,0-0.6,0.3-0.6,0.6c0,0.3,0.3,0.6,0.6,0.6h2.5c0.3,0,0.6-0.3,0.6-0.6
		C6.8,15.1,6.6,14.9,6.2,14.9z"/>
	<path class="st0" d="M6.2,19.8H3.7c-0.3,0-0.6,0.3-0.6,0.6c0,0.3,0.3,0.6,0.6,0.6h2.5c0.3,0,0.6-0.3,0.6-0.6
		C6.8,20.1,6.6,19.8,6.2,19.8z"/>
	<path class="st0" d="M6.2,24.8H3.7c-0.3,0-0.6,0.3-0.6,0.6c0,0.3,0.3,0.6,0.6,0.6h2.5c0.3,0,0.6-0.3,0.6-0.6
		C6.8,25.1,6.6,24.8,6.2,24.8z"/>
	<path class="st0" d="M6.2,29.7H3.7c-0.3,0-0.6,0.3-0.6,0.6S3.4,31,3.7,31h2.5c0.3,0,0.6-0.3,0.6-0.6S6.6,29.7,6.2,29.7z"/>
	<path class="st0" d="M21.1,4.9H8.7c-0.3,0-0.6,0.3-0.6,0.6c0,0.3,0.3,0.6,0.6,0.6h12.4c0.3,0,0.6-0.3,0.6-0.6S21.4,4.9,21.1,4.9z"
		/>
	<path class="st0" d="M21.1,9.9H8.7c-0.3,0-0.6,0.3-0.6,0.6c0,0.3,0.3,0.6,0.6,0.6h12.4c0.3,0,0.6-0.3,0.6-0.6
		C21.7,10.2,21.4,9.9,21.1,9.9z"/>
	<path class="st0" d="M21.1,14.9H8.7c-0.3,0-0.6,0.3-0.6,0.6c0,0.3,0.3,0.6,0.6,0.6h12.4c0.3,0,0.6-0.3,0.6-0.6
		C21.7,15.1,21.4,14.9,21.1,14.9z"/>
	<path class="st0" d="M21.1,19.8H8.7c-0.3,0-0.6,0.3-0.6,0.6c0,0.3,0.3,0.6,0.6,0.6h12.4c0.3,0,0.6-0.3,0.6-0.6
		C21.7,20.1,21.4,19.8,21.1,19.8z"/>
	<path class="st0" d="M21.1,24.8H8.7c-0.3,0-0.6,0.3-0.6,0.6c0,0.3,0.3,0.6,0.6,0.6h12.4c0.3,0,0.6-0.3,0.6-0.6
		C21.7,25.1,21.4,24.8,21.1,24.8z"/>
	<path class="st0" d="M21.1,29.7H8.7c-0.3,0-0.6,0.3-0.6,0.6S8.4,31,8.7,31h12.4c0.3,0,0.6-0.3,0.6-0.6S21.4,29.7,21.1,29.7z"/>
</g>
</svg>
