<?xml version="1.0" encoding="utf-8"?>
<!-- Generator: Adobe Illustrator 26.0.1, SVG Export Plug-In . SVG Version: 6.00 Build 0)  -->
<svg version="1.1"
	 id="Layer_1" xmlns:cc="http://creativecommons.org/ns#" xmlns:dc="http://purl.org/dc/elements/1.1/" xmlns:inkscape="http://www.inkscape.org/namespaces/inkscape" xmlns:rdf="http://www.w3.org/1999/02/22-rdf-syntax-ns#" xmlns:sodipodi="http://sodipodi.sourceforge.net/DTD/sodipodi-0.dtd" xmlns:svg="http://www.w3.org/2000/svg"
	 xmlns="http://www.w3.org/2000/svg" xmlns:xlink="http://www.w3.org/1999/xlink" x="0px" y="0px" viewBox="0 0 100 100"
	 style="enable-background:new 0 0 100 100;" xml:space="preserve">
<style type="text/css">
	.st0{fill:#B78D46;}
</style>
<g transform="translate(0,-952.36218)">
	<path class="st0" d="M15.6,952.4c-3.1,0-5.6,2.5-5.6,5.6v82.2c0,3.1,2.5,5.6,5.6,5.6H60c3,4,7.9,6.7,13.3,6.7
		c9.2,0,16.7-7.5,16.7-16.7c0-7.2-4.6-13.4-11.1-15.7v-62.1c0-3.1-2.5-5.6-5.6-5.6L15.6,952.4L15.6,952.4z M15.6,954.6h57.8
		c1.9,0,3.3,1.5,3.3,3.3v61.5c-1.1-0.2-2.2-0.3-3.3-0.3c-9.2,0-16.7,7.5-16.7,16.7c0,2.8,0.7,5.5,1.9,7.8H15.6
		c-1.9,0-3.3-1.5-3.3-3.3v-82.2C12.2,956.1,13.7,954.6,15.6,954.6L15.6,954.6z M24.4,965.7c-0.6,0-1.1,0.5-1.1,1.1
		c0,0.6,0.5,1.1,1.1,1.1h40c0.6,0,1.1-0.5,1.1-1.1c0-0.6-0.5-1.1-1.1-1.1H24.4z M24.4,981.3c-0.6,0-1.1,0.5-1.1,1.1
		c0,0.6,0.5,1.1,1.1,1.1h40c0.6,0,1.1-0.5,1.1-1.1c0-0.6-0.5-1.1-1.1-1.1H24.4z M24.4,996.8c-0.6,0-1.1,0.5-1.1,1.1
		c0,0.6,0.5,1.1,1.1,1.1h40c0.6,0,1.1-0.5,1.1-1.1c0-0.6-0.5-1.1-1.1-1.1H24.4z M24.4,1012.4c-0.6,0-1.1,0.5-1.1,1.1
		s0.5,1.1,1.1,1.1h40c0.6,0,1.1-0.5,1.1-1.1s-0.5-1.1-1.1-1.1H24.4z M73.3,1021.3c8,0,14.4,6.5,14.4,14.4s-6.5,14.4-14.4,14.4
		s-14.4-6.5-14.4-14.4S65.3,1021.3,73.3,1021.3L73.3,1021.3z M73.3,1026.8c-0.3,0-0.6,0.1-0.8,0.3c-1.9,1.8-3.7,3.7-5.6,5.6
		c-0.4,0.4-0.4,1.2,0,1.6c0.4,0.4,1.2,0.4,1.6,0l3.6-3.7v12.9c0,0.6,0.5,1.1,1.1,1.1s1.1-0.5,1.1-1.1v-12.9l3.6,3.7
		c0.4,0.4,1.2,0.4,1.6,0c0.4-0.4,0.4-1.2,0-1.6c-1.9-1.8-3.8-3.7-5.6-5.6C73.9,1026.9,73.6,1026.8,73.3,1026.8L73.3,1026.8z
		 M24.4,1027.9c-0.6,0-1.1,0.5-1.1,1.1c0,0.6,0.5,1.1,1.1,1.1h22.2c0.6,0,1.1-0.5,1.1-1.1c0-0.6-0.5-1.1-1.1-1.1H24.4z"/>
</g>
</svg>
