<?xml version="1.0" encoding="utf-8"?>
<!-- Generator: Adobe Illustrator 26.0.1, SVG Export Plug-In . SVG Version: 6.00 Build 0)  -->
<svg version="1.1" id="Layer_1" xmlns="http://www.w3.org/2000/svg" xmlns:xlink="http://www.w3.org/1999/xlink" x="0px" y="0px"
	 viewBox="0 0 100 100" style="enable-background:new 0 0 100 100;" xml:space="preserve">
<style type="text/css">
	.st0{fill:#B78D46;}
</style>
<path class="st0" d="M86,10c-9.5,0-19-2.2-27.5-6.4L54,1.3c-2.5-1.2-5.5-1.2-8,0l-4.5,2.3C33,7.8,23.5,10,14,10c-5,0-9,4-9,9v19.7
	C5,51.8,9,64.6,16.5,75.4c7.5,10.8,18,19,30.3,23.7c2.1,0.8,4.3,0.8,6.4,0C65.5,94.4,76,86.2,83.5,75.4C91,64.6,95,51.8,95,38.7V19
	C95,14,91,10,86,10L86,10z M87.3,38.7L87.3,38.7c0,11.5-3.6,22.8-10.2,32.3c-6.6,9.5-15.9,16.8-26.7,20.9c-0.3,0.1-0.6,0.1-0.9,0
	C38.7,87.8,29.4,80.5,22.9,71c-6.6-9.5-10.1-20.8-10.2-32.3V19c0-0.7,0.6-1.3,1.3-1.3c10.7,0,21.3-2.5,30.9-7.3l4.5-2.3h1.1l4.5,2.3
	h0c9.6,4.8,20.1,7.3,30.9,7.3c0.3,0,0.7,0.1,0.9,0.4c0.2,0.2,0.4,0.6,0.4,0.9L87.3,38.7z M72.4,32.8L72.4,32.8
	c0.8,0.7,1.2,1.6,1.3,2.7c0.1,1-0.3,2-1,2.8L47.5,66.6c-0.7,0.8-1.6,1.2-2.7,1.3c-1,0-1.9-0.4-2.6-1L27.6,53.6
	c-1.5-1.5-1.5-3.9,0-5.4c1.5-1.5,3.9-1.5,5.5,0l11.6,10.3l22.5-25.4C68.5,31.7,70.8,31.6,72.4,32.8L72.4,32.8z"/>
</svg>
