<?xml version="1.0" encoding="utf-8"?>
<!-- Generator: Adobe Illustrator 26.0.1, SVG Export Plug-In . SVG Version: 6.00 Build 0)  -->
<svg version="1.1" id="Layer_1" xmlns="http://www.w3.org/2000/svg" xmlns:xlink="http://www.w3.org/1999/xlink" x="0px" y="0px"
	 viewBox="0 0 100 100" style="enable-background:new 0 0 100 100;" xml:space="preserve">
<style type="text/css">
	.st0{fill-rule:evenodd;clip-rule:evenodd;fill:#E3C896;}
	.st1{fill-rule:evenodd;clip-rule:evenodd;fill:#B78D46;}
</style>
<path class="st0" d="M50,2.4c26.3,0,47.6,21.3,47.6,47.6c0,17.8-9.9,34.1-25.7,42.3l1.5-5.7c0.2-0.7-0.2-1.3-0.9-1.5
	c-0.7-0.2-1.3,0.2-1.5,0.9l-2.2,8.2c-0.2,0.7,0.2,1.3,0.9,1.5l8.2,2.2c0.7,0.2,1.3-0.2,1.5-0.9s-0.2-1.3-0.9-1.5l-5.1-1.4
	C89.8,85.5,100,68.5,100,50c0-27.6-22.4-50-50-50c-0.7,0-1.2,0.5-1.2,1.2C48.8,1.9,49.3,2.4,50,2.4L50,2.4z"/>
<path class="st0" d="M21.5,4.5l5.1,1.4C10.2,14.5,0,31.5,0,50c0,27.6,22.4,50,50,50c0.7,0,1.2-0.5,1.2-1.2s-0.5-1.2-1.2-1.2
	C23.7,97.6,2.4,76.3,2.4,50c0-17.8,9.9-34.1,25.7-42.3l-1.5,5.7c-0.2,0.7,0.2,1.3,0.9,1.5c0.7,0.2,1.3-0.2,1.5-0.9l2.2-8.2
	c0.2-0.7-0.2-1.3-0.9-1.5l-8.2-2.2c-0.7-0.2-1.3,0.2-1.5,0.9C20.5,3.6,20.8,4.3,21.5,4.5L21.5,4.5z"/>
<path class="st1" d="M50,26.4L24.2,34c0,5.4,0.1,10.9,0.8,16.1c1.2,9.3,3.8,14.1,11.3,19.8c4.3,3.2,9.1,6.1,13.8,8.8l0,0
	c4.7-2.7,9.5-5.6,13.8-8.8c7.5-5.7,10.1-10.5,11.3-19.8c0.7-5.2,0.8-10.7,0.8-16.1L50,26.4z M59.5,45.1L48,56.6
	c-0.5,0.5-1.2,0.5-1.7,0l-5.7-5.7c-0.5-0.5-0.5-1.2,0-1.7c0.5-0.5,1.2-0.5,1.7,0l4.9,4.9l10.6-10.6l0,0c0.5-0.5,1.2-0.5,1.7,0
	S59.9,44.7,59.5,45.1z"/>
<path class="st1" d="M50,21.3l-30.7,9c0,33.7,2.5,37.7,30.7,54C78.2,68,80.7,64,80.7,30.3L50,21.3z M65.2,71.8
	c-4.8,3.7-10,6.7-15.2,9.7l-1.2-0.7l0,0c-4.8-2.8-9.6-5.6-14-9c-8-6.1-11-11.5-12.2-21.4c-0.8-6.1-0.8-12.1-0.8-18.2L50,23.9
	l28.3,8.3c0,6.1,0,12.1-0.8,18.2C76.2,60.3,73.2,65.7,65.2,71.8z"/>
</svg>
