<?xml version="1.0" encoding="utf-8"?>
<!-- Generator: Adobe Illustrator 26.0.1, SVG Export Plug-In . SVG Version: 6.00 Build 0)  -->
<svg version="1.1" id="Layer_1" xmlns="http://www.w3.org/2000/svg" xmlns:xlink="http://www.w3.org/1999/xlink" x="0px" y="0px"
	 viewBox="0 0 100 100" style="enable-background:new 0 0 100 100;" xml:space="preserve">
<style type="text/css">
	.st0{fill:#B78D46;}
	.st1{fill:#E3C896;}
</style>
<path class="st0" d="M92.2,36.5L92.2,36.5H82c0.1-0.1,0.1-0.2,0.2-0.3c2.2-4.7,1.6-10.4-1.6-14.4c-2.9-3.8-7.5-5.8-12.2-5.4v-3.1
	c0-0.5-0.3-0.9-0.7-1.1c-0.4-0.2-0.9-0.1-1.3,0.3l-9.1,9.1c-0.2,0.2-0.3,0.5-0.3,0.8s0.1,0.6,0.3,0.8l9.1,9c0.2,0.2,0.5,0.3,0.8,0.3
	c0.1,0,0.3,0,0.5-0.1c0.4-0.2,0.7-0.6,0.7-1.1v-3.5c2.5-0.6,5.1-0.2,7.3,1.1c2.4,1.5,4,4,4.3,6.8c0,0.2,0.1,0.5,0.3,0.6H56.5V16.9
	c0-3.7-3-6.8-6.7-6.8h-42c-3.7,0-6.7,3-6.7,6.8v27.2c0,3.7,3,6.7,6.7,6.7H16l-0.2,11.6c0,0.5,0.3,0.9,0.7,1.1
	c0.2,0.1,0.3,0.1,0.5,0.1c0.3,0,0.5-0.1,0.8-0.3l14.6-12.5h11.3v19.7c0,3.7,3,6.7,6.7,6.7h17.5l14.6,12.5c0.2,0.2,0.5,0.3,0.8,0.3
	c0.2,0,0.3,0,0.5-0.1c0.4-0.2,0.7-0.6,0.7-1.1L84,77.2h8.2c3.7,0,6.7-3,6.7-6.7V43.3C98.9,39.6,95.8,36.5,92.2,36.5z M76.9,27.1
	L76.9,27.1c-3-1.9-6.6-2.3-10-1.1l0,0c-0.1,0-0.1,0.1-0.2,0.1s-0.1,0.1-0.2,0.1s-0.1,0.1-0.1,0.2s-0.1,0.1-0.1,0.2s0,0.1-0.1,0.2
	c0,0.1,0,0.2,0,0.2l0,0v1.6l-6.3-6.3l6.3-6.3v1.6v0.1v0.1v0.1c0,0.1,0,0.1,0.1,0.2c0,0.1,0.1,0.1,0.1,0.2s0.1,0.1,0.1,0.1
	c0.1,0.1,0.1,0.1,0.2,0.1s0.1,0.1,0.2,0.1s0.2,0,0.3,0.1h0.1h0.1h0.1c4.3-0.7,8.7,1,11.3,4.4c1.9,2.4,2.7,5.4,2.4,8.4
	C80.2,29.8,78.7,28.2,76.9,27.1z M31.8,48.4c-0.3,0-0.5,0.1-0.8,0.3L18.1,59.8l0.2-10.2c0-0.3-0.1-0.6-0.3-0.8
	c-0.2-0.2-0.5-0.3-0.8-0.3H7.8c-2.4,0-4.4-2-4.4-4.4V16.9c0-2.5,1.9-4.5,4.4-4.5h42c2.5,0,4.4,2,4.4,4.5v27.2c0,2.4-2,4.4-4.4,4.4
	L31.8,48.4z M96.6,70.5L96.6,70.5c0,2.4-2,4.4-4.4,4.4h-9.4c-0.3,0-0.6,0.1-0.8,0.3c-0.2,0.2-0.3,0.5-0.3,0.8l0.2,10.2l-13-11.1
	c-0.2-0.2-0.5-0.3-0.8-0.3H50.2c-2.4,0-4.4-2-4.4-4.4V50.8h3.9c2.2,0,4.2-1.1,5.4-2.7c0,0,0.1,0,0.1,0.1l0.1-0.1l0,0l0,0
	c0,0,0,0,0-0.1l0,0c0.2-0.3,0.3-0.6,0.4-0.9c0,0,0-0.1,0.1-0.1c0-0.1,0-0.2,0-0.3c0.1-0.2,0.1-0.3,0.2-0.5v-0.1l0,0
	c0.2-0.6,0.3-1.3,0.3-2v-5.3H92c2.4,0,4.4,2,4.4,4.5L96.6,70.5z"/>
<path class="st0" d="M86.4,46.1H58.3c0,0.3-0.1,0.6-0.2,0.8c-0.1,0.2-0.2,0.4-0.3,0.7c0,0.1,0,0.1,0,0.2c-0.1,0.2-0.1,0.4-0.2,0.5
	c0,0,0,0.1-0.1,0.1h28.9c0.6,0,1.2-0.5,1.2-1.2C87.6,46.6,87.1,46.1,86.4,46.1z"/>
<path class="st1" d="M86.4,55.5H56c-0.6,0-1.2,0.5-1.2,1.2s0.5,1.2,1.2,1.2h30.5c0.6,0,1.2-0.5,1.2-1.2
	C87.6,56.1,87.1,55.5,86.4,55.5L86.4,55.5z"/>
<path class="st1" d="M86.4,65H56c-0.6,0-1.2,0.5-1.2,1.2s0.5,1.2,1.2,1.2h30.5c0.6,0,1.2-0.5,1.2-1.2C87.6,65.6,87.1,65,86.4,65
	L86.4,65z"/>
<path class="st1" d="M40.5,25.9l-8.9,0.4L31.7,16c0-0.5-0.3-0.9-0.8-1.1c-0.5-0.2-1,0-1.3,0.3L16.1,31.6c-0.3,0.3-0.3,0.8-0.2,1.2
	c0.2,0.4,0.6,0.7,1,0.7l0,0l8.6-0.1l-0.3,11.8c0,0.5,0.3,0.9,0.8,1.1c0.1,0,0.3,0.1,0.4,0.1c0.3,0,0.7-0.2,0.9-0.5l14.1-18.2
	c0.3-0.4,0.3-0.8,0.1-1.2C41.3,26.1,40.9,25.8,40.5,25.9L40.5,25.9z M27.7,41.7l0.2-9.4c0-0.3-0.1-0.6-0.3-0.8
	c-0.2-0.2-0.5-0.3-0.8-0.3l0,0l-7.3,0.1l9.9-11.9l-0.2,8.2c0,0.3,0.1,0.6,0.3,0.9c0.2,0.2,0.5,0.3,0.9,0.3l7.7-0.3L27.7,41.7z"/>
</svg>
