<svg xmlns="http://www.w3.org/2000/svg" width="24" height="24" viewBox="0 0 24 24" fill="none"><path d="M3.5 2C3.10218 2 2.72064 2.15804 2.43934 2.43934C2.15804 2.72064 2 3.10218 2 3.5V16.5C2 16.8978 2.15804 17.2794 2.43934 17.5607C2.72064 17.842 3.10218 18 3.5 18H9V14.684C9 13.921 9.316 13.194 9.874 12.674L14 8.821V8.5C14 8.10218 13.842 7.72064 13.5607 7.43934C13.2794 7.15804 12.8978 7 12.5 7H11V3.5C11 3.10218 10.842 2.72064 10.5607 2.43934C10.2794 2.15804 9.89782 2 9.5 2H3.5ZM6 5.75C6 5.94891 5.92098 6.13968 5.78033 6.28033C5.63968 6.42098 5.44891 6.5 5.25 6.5C5.05109 6.5 4.86032 6.42098 4.71967 6.28033C4.57902 6.13968 4.5 5.94891 4.5 5.75C4.5 5.55109 4.57902 5.36032 4.71967 5.21967C4.86032 5.07902 5.05109 5 5.25 5C5.44891 5 5.63968 5.07902 5.78033 5.21967C5.92098 5.36032 6 5.55109 6 5.75ZM5.25 9.5C5.05109 9.5 4.86032 9.42098 4.71967 9.28033C4.57902 9.13968 4.5 8.94891 4.5 8.75C4.5 8.55109 4.57902 8.36032 4.71967 8.21967C4.86032 8.07902 5.05109 8 5.25 8C5.44891 8 5.63968 8.07902 5.78033 8.21967C5.92098 8.36032 6 8.55109 6 8.75C6 8.94891 5.92098 9.13968 5.78033 9.28033C5.63968 9.42098 5.44891 9.5 5.25 9.5ZM6 11.75C6 11.9489 5.92098 12.1397 5.78033 12.2803C5.63968 12.421 5.44891 12.5 5.25 12.5C5.05109 12.5 4.86032 12.421 4.71967 12.2803C4.57902 12.1397 4.5 11.9489 4.5 11.75C4.5 11.5511 4.57902 11.3603 4.71967 11.2197C4.86032 11.079 5.05109 11 5.25 11C5.44891 11 5.63968 11.079 5.78033 11.2197C5.92098 11.3603 6 11.5511 6 11.75ZM7.75 6.5C7.55109 6.5 7.36032 6.42098 7.21967 6.28033C7.07902 6.13968 7 5.94891 7 5.75C7 5.55109 7.07902 5.36032 7.21967 5.21967C7.36032 5.07902 7.55109 5 7.75 5C7.94891 5 8.13968 5.07902 8.28033 5.21967C8.42098 5.36032 8.5 5.55109 8.5 5.75C8.5 5.94891 8.42098 6.13968 8.28033 6.28033C8.13968 6.42098 7.94891 6.5 7.75 6.5ZM8.5 8.75C8.5 8.94891 8.42098 9.13968 8.28033 9.28033C8.13968 9.42098 7.94891 9.5 7.75 9.5C7.55109 9.5 7.36032 9.42098 7.21967 9.28033C7.07902 9.13968 7 8.94891 7 8.75C7 8.55109 7.07902 8.36032 7.21967 8.21967C7.36032 8.07902 7.55109 8 7.75 8C7.94891 8 8.13968 8.07902 8.28033 8.21967C8.42098 8.36032 8.5 8.55109 8.5 8.75ZM7.75 12.5C7.65151 12.5 7.55398 12.4806 7.46299 12.4429C7.37199 12.4052 7.28931 12.35 7.21967 12.2803C7.15003 12.2107 7.09478 12.128 7.05709 12.037C7.0194 11.946 7 11.8485 7 11.75C7 11.6515 7.0194 11.554 7.05709 11.463C7.09478 11.372 7.15003 11.2893 7.21967 11.2197C7.28931 11.15 7.37199 11.0948 7.46299 11.0571C7.55398 11.0194 7.65151 11 7.75 11C7.94891 11 8.13968 11.079 8.28033 11.2197C8.42098 11.3603 8.5 11.5511 8.5 11.75C8.5 11.9489 8.42098 12.1397 8.28033 12.2803C8.13968 12.421 7.94891 12.5 7.75 12.5ZM17.194 9.439C16.87 9.13659 16.4432 8.9684 16 8.9684C15.5568 8.9684 15.13 9.13659 14.806 9.439L10.556 13.405C10.3805 13.5688 10.2405 13.767 10.1449 13.9872C10.0492 14.2074 9.99992 14.4449 10 14.685V20.5C10 20.8978 10.158 21.2794 10.4393 21.5607C10.7206 21.842 11.1022 22 11.5 22H13.5C13.8978 22 14.2794 21.842 14.5607 21.5607C14.842 21.2794 15 20.8978 15 20.5V18H17V20.5C17 20.8978 17.158 21.2794 17.4393 21.5607C17.7206 21.842 18.1022 22 18.5 22H20.5C20.8978 22 21.2794 21.842 21.5607 21.5607C21.842 21.2794 22 20.8978 22 20.5V14.685C22.0001 14.4449 21.9508 14.2074 21.8551 13.9872C21.7595 13.767 21.6195 13.5688 21.444 13.405L17.194 9.439ZM15.829 10.535C15.8753 10.4916 15.9365 10.4674 16 10.4674C16.0635 10.4674 16.1247 10.4916 16.171 10.535L20.421 14.502C20.446 14.5255 20.4659 14.5538 20.4795 14.5853C20.4931 14.6168 20.5001 14.6507 20.5 14.685V20.5H18.5V18C18.5 17.6022 18.342 17.2206 18.0607 16.9393C17.7794 16.658 17.3978 16.5 17 16.5H15C14.6022 16.5 14.2206 16.658 13.9393 16.9393C13.658 17.2206 13.5 17.6022 13.5 18V20.5H11.5V14.685C11.5 14.6506 11.5072 14.6167 11.5209 14.5852C11.5347 14.5537 11.5548 14.5254 11.58 14.502L15.829 10.535Z" fill="currentColor"></path></svg>