<svg width="41" height="40" viewBox="0 0 41 40" fill="none" xmlns="http://www.w3.org/2000/svg"><g style="mix-blend-mode:darken"><g clip-path="url(#clip0_2578_16622)"><g clip-path="url(#clip1_2578_16622)"><path d="M35.2628 16.0308V31.6392C35.2628 33.29 33.9261 34.628 32.2768 34.628H8.38839C6.7391 34.628 5.40234 33.29 5.40234 31.6392V11.0494C5.40234 9.39855 6.7391 8.06055 8.38839 8.06055H22.3233" stroke="#222325" stroke-width="1.6" stroke-linecap="round" stroke-linejoin="round"/><path d="M12.3711 28.3184L23.3199 17.3594L29.292 28.3184H12.3711Z" stroke="#222325" stroke-width="1.6" stroke-linecap="round" stroke-linejoin="round"/><path d="M12.8673 19.3515C14.2416 19.3515 15.3557 18.2364 15.3557 16.8608C15.3557 15.4852 14.2416 14.3701 12.8673 14.3701C11.493 14.3701 10.3789 15.4852 10.3789 16.8608C10.3789 18.2364 11.493 19.3515 12.8673 19.3515Z" stroke="#222325" stroke-width="1.6" stroke-linecap="round" stroke-linejoin="round"/></g><path d="M35.2621 11.0478C32.5139 11.0478 30.2853 13.2785 30.2853 16.0292C30.2853 13.2785 28.0568 11.0478 25.3086 11.0478C28.0568 11.0478 30.2853 8.81713 30.2853 6.06641C30.2853 8.81713 32.5139 11.0478 35.2621 11.0478Z" fill="#222325"/><path fill-rule="evenodd" clip-rule="evenodd" d="M30.2865 5.07031C30.8363 5.07031 31.2819 5.51636 31.2819 6.06659C31.2819 8.26709 33.0649 10.0517 35.2633 10.0517C35.813 10.0517 36.2586 10.4978 36.2586 11.048C36.2586 11.5982 35.813 12.0443 35.2633 12.0443C33.0649 12.0443 31.2819 13.8289 31.2819 16.0294C31.2819 16.5796 30.8363 17.0257 30.2865 17.0257C29.7368 17.0257 29.2912 16.5796 29.2912 16.0294C29.2912 13.8289 27.5082 12.0443 25.3098 12.0443C24.7601 12.0443 24.3145 11.5982 24.3145 11.048C24.3145 10.4978 24.7601 10.0517 25.3098 10.0517C27.5082 10.0517 29.2912 8.26709 29.2912 6.06659C29.2912 5.51636 29.7368 5.07031 30.2865 5.07031ZM30.2865 9.37169C29.8454 10.0357 29.2752 10.6065 28.6118 11.048C29.2752 11.4895 29.8454 12.0602 30.2865 12.7243C30.7276 12.0602 31.2979 11.4895 31.9613 11.048C31.2979 10.6065 30.7276 10.0357 30.2865 9.37169Z" fill="#222325"/></g></g><defs><clipPath id="clip0_2578_16622"><rect width="31.8512" height="33.2093" fill="white" transform="translate(4.40625 4.07422)"/></clipPath><clipPath id="clip1_2578_16622"><rect width="31.8512" height="31.8809" fill="white" transform="translate(4.40625 5.40332)"/></clipPath></defs></svg>