<svg xmlns="http://www.w3.org/2000/svg" width="120" height="120" fill="none"><mask id="a" width="120" height="120" x="0" y="0" maskUnits="userSpaceOnUse" style="mask-type:alpha"><circle cx="60" cy="60" r="60" fill="#E4E5E7"/></mask><g mask="url(#a)"><circle cx="60" cy="60" r="60" fill="#E4E5E7"/><path fill="#B5B6BA" d="M60 88c6.04 0 12.022.827 17.603 2.436 5.582 1.608 10.653 3.966 14.924 6.937 4.272 2.971 7.659 6.499 9.971 10.381C104.81 111.636 106 115.798 106 120H14c0-4.202 1.19-8.364 3.502-12.246 2.312-3.882 5.7-7.41 9.97-10.381 4.272-2.971 9.343-5.33 14.925-6.938C47.977 88.828 53.959 88 60 88Zm0-60c13.807 0 25 12.536 25 28S73.807 84 60 84 35 71.464 35 56s11.193-28 25-28Z"/></g></svg>