<svg width="38" height="48" viewBox="0 0 38 48" fill="none" xmlns="http://www.w3.org/2000/svg"><path d="M15.275 32.0434H22.325V26.1684H28.2V19.1184H22.325V13.2434H15.275V19.1184H9.4V26.1684H15.275V32.0434ZM18.8 47.3184C13.3558 45.9475 8.86107 42.8236 5.3157 37.9466C1.77033 33.0695 -0.00156563 27.6551 1.03799e-06 21.7034V7.36836L18.8 0.318359L37.6 7.36836V21.7034C37.6 27.6567 35.8281 33.0719 32.2843 37.9489C28.7405 42.8259 24.2457 45.9491 18.8 47.3184ZM18.8 42.3834C22.8733 41.0909 26.2417 38.5059 28.905 34.6284C31.5683 30.7509 32.9 26.4425 32.9 21.7034V10.5996L18.8 5.31211L4.7 10.5996V21.7034C4.7 26.4425 6.03167 30.7509 8.695 34.6284C11.3583 38.5059 14.7267 41.0909 18.8 42.3834Z" fill="#435AAF"></path></svg>