<svg width="50" height="48" viewBox="0 0 50 48" fill="none" xmlns="http://www.w3.org/2000/svg"><path d="M17.2727 47.3184L12.9545 40.1565L4.77273 38.366L5.56818 30.085L0 23.8184L5.56818 17.5517L4.77273 9.27074L12.9545 7.48026L17.2727 0.318359L25 3.5636L32.7273 0.318359L37.0455 7.48026L45.2273 9.27074L44.4318 17.5517L50 23.8184L44.4318 30.085L45.2273 38.366L37.0455 40.1565L32.7273 47.3184L25 44.0731L17.2727 47.3184ZM19.2045 41.6112L25 39.1493L30.9091 41.6112L34.0909 36.2398L40.3409 34.785L39.7727 28.5184L43.9773 23.8184L39.7727 19.0065L40.3409 12.7398L34.0909 11.3969L30.7955 6.0255L25 8.48741L19.0909 6.0255L15.9091 11.3969L9.65909 12.7398L10.2273 19.0065L6.02273 23.8184L10.2273 28.5184L9.65909 34.8969L15.9091 36.2398L19.2045 41.6112ZM22.6136 31.7636L35.4545 19.1184L32.2727 15.8731L22.6136 25.385L17.7273 20.685L14.5455 23.8184L22.6136 31.7636Z" fill="currentColor"></path></svg>