<svg xmlns="http://www.w3.org/2000/svg" width="16" height="16" fill="none" viewBox="0 0 16 16" data-track-tag="camera_icon"><path stroke="#0C0C0D" stroke-linecap="round" stroke-linejoin="round" stroke-width="1.5" d="M4.963 3.95H2.6A1.35 1.35 0 0 0 1.25 5.3v7.425c0 .746.604 1.35 1.35 1.35h10.8a1.35 1.35 0 0 0 1.35-1.35V5.3a1.35 1.35 0 0 0-1.35-1.35h-2.363m.338 1.013-.859-2.576a.675.675 0 0 0-.64-.462H6.124a.675.675 0 0 0-.64.462l-.859 2.576m5.74 4.387a2.363 2.363 0 1 1-4.726-.001 2.363 2.363 0 0 1 4.725.001" vector-effect="non-scaling-stroke"></path></svg>