<svg width="49" height="49" viewBox="0 0 49 49" fill="none" xmlns="http://www.w3.org/2000/svg"><path d="M24.5 47.1641C36.9267 47.1641 47 37.0908 47 24.6641C47 12.2373 36.9267 2.16406 24.5 2.16406C12.0733 2.16406 2 12.2373 2 24.6641C2 37.0908 12.0733 47.1641 24.5 47.1641Z" stroke="currentColor" stroke-width="3" stroke-linecap="round" stroke-linejoin="round"></path><path d="M3.125 25.7891L15.5 30.2891L13.25 38.1641L15.5 44.9141M35.75 43.7891L34.625 38.1641L29 35.9141V28.0391L35.75 25.7891L45.875 26.9141M40.25 10.0391L39.125 13.4141L31.25 14.5391V21.2891L36.875 19.0391H41.375L45.875 21.2891M3.125 21.2891L8.75 16.7891L14.375 15.6641L18.875 8.91406L16.625 4.41406" stroke="currentColor" stroke-width="3" stroke-linecap="round" stroke-linejoin="round"></path></svg>