<svg width="53.41" height="17.87" viewBox="0 0 73 25" fill="none" xmlns="http://www.w3.org/2000/svg"><path fill-rule="evenodd" clip-rule="evenodd" d="M18.0044 9.21399H9.50563V11.7518H15.5331C15.2353 15.3106 12.2931 16.8283 9.51584 16.8283C5.96265 16.8283 2.86207 14.0149 2.86207 10.0717C2.86207 6.23042 5.81771 3.2721 9.52364 3.2721C12.3828 3.2721 14.0676 5.10629 14.0676 5.10629L15.8334 3.26616C15.8334 3.26616 13.567 0.727051 9.43338 0.727051C4.16972 0.726977 0.0976562 5.19756 0.0976562 10.0264C0.0976562 14.7581 3.92811 19.3719 9.56753 19.3719C14.5275 19.3719 18.1581 15.9527 18.1581 10.8965C18.1581 9.82984 18.0042 9.21333 18.0042 9.21333L18.0044 9.21399Z" fill="white"/><path fill-rule="evenodd" clip-rule="evenodd" d="M19.1924 13.5669C19.1924 10.3671 21.6916 7.62354 25.1789 7.62354C28.0456 7.62354 31.1542 9.66763 31.1542 13.6367C31.1542 17.0996 28.4818 19.6086 25.2198 19.6086C21.6165 19.6086 19.1924 16.814 19.1924 13.5669ZM28.5536 13.6208C28.5536 11.3726 26.9285 9.97742 25.2136 9.97742C23.2866 9.97742 21.8058 11.5277 21.8058 13.6034C21.8058 15.7246 23.3052 17.2563 25.2057 17.2563C26.9354 17.2563 28.5536 15.8214 28.5536 13.6208Z" fill="white"/><path fill-rule="evenodd" clip-rule="evenodd" d="M32.2114 13.5669C32.2114 10.3671 34.7106 7.62354 38.1979 7.62354C41.0647 7.62354 44.1733 9.66763 44.1733 13.6367C44.1733 17.0996 41.5009 19.6086 38.2389 19.6086C34.6355 19.6086 32.2114 16.814 32.2114 13.5669ZM41.5726 13.6208C41.5726 11.3726 39.9475 9.97742 38.2326 9.97742C36.3056 9.97742 34.8249 11.5277 34.8249 13.6034C34.8249 15.7246 36.3242 17.2563 38.2247 17.2563C39.9544 17.2563 41.5726 15.8214 41.5726 13.6208Z" fill="white"/><path fill-rule="evenodd" clip-rule="evenodd" d="M45.2305 13.6113C45.2305 10.4447 47.7465 7.62354 50.9474 7.62354V7.62368C52.3406 7.62368 53.3905 8.16646 54.1582 8.99896V7.98384H56.6549V18.752C56.6549 22.9827 54.2293 24.9999 51.0468 24.9999C48.1371 24.9999 46.5027 23.1983 45.6908 21.4707L47.9794 20.5079C48.2965 21.2803 49.2089 22.6413 51.0278 22.6413C52.9107 22.6413 54.1581 21.4032 54.1581 19.3357V18.1541C53.4918 18.9322 52.5894 19.6102 50.8922 19.6102C48.1474 19.6102 45.2305 17.2183 45.2305 13.6113ZM54.3599 13.624C54.3599 11.3211 52.7484 9.9726 51.1791 9.9726H51.179C49.4992 9.9726 47.8501 11.3455 47.8501 13.6462C47.8501 15.8603 49.4379 17.2547 51.1444 17.2547C52.7518 17.2547 54.3599 15.9647 54.3599 13.624Z" fill="white"/><path fill-rule="evenodd" clip-rule="evenodd" d="M61.7212 13.6081C61.7212 10.041 64.2564 7.62354 67.2758 7.62354L67.2761 7.6239C69.6573 7.6239 71.4566 9.22185 72.228 11.1353L72.6425 12.1124L64.6577 15.4465C65.1346 16.3401 65.9043 17.2627 67.5784 17.2627C69.0688 17.2627 69.9619 16.4473 70.496 15.6131L72.5546 16.9914C71.6317 18.2342 70.0854 19.6213 67.5658 19.6213C64.547 19.6213 61.7212 17.3827 61.7212 13.6081ZM69.5833 11.2083C69.2508 10.5103 68.4678 9.92822 67.3798 9.92822C65.6558 9.92822 64.0211 11.7147 64.251 13.4511L69.5833 11.2083Z" fill="white"/><path fill-rule="evenodd" clip-rule="evenodd" d="M58.2495 19.2524H60.8723V1.58911H58.2495V19.2524Z" fill="white"/></svg>