<svg xmlns="http://www.w3.org/2000/svg" width="40" height="40" viewBox="0 0 40 40" fill="none"><path d="M13.75 5C12.7554 5 11.8016 5.39509 11.0983 6.09835C10.3951 6.80161 10 7.75544 10 8.75V33.75C10 34.0815 10.1317 34.3995 10.3661 34.6339C10.6005 34.8683 10.9185 35 11.25 35H15V28.75C15 28.4185 15.1317 28.1005 15.3661 27.8661C15.6005 27.6317 15.9185 27.5 16.25 27.5H26.25C26.5815 27.5 26.8995 27.6317 27.1339 27.8661C27.3683 28.1005 27.5 28.4185 27.5 28.75V35H31.25C31.5815 35 31.8995 34.8683 32.1339 34.6339C32.3683 34.3995 32.5 34.0815 32.5 33.75V21.25C32.5 20.2554 32.1049 19.3016 31.4017 18.5983C30.6984 17.8951 29.7446 17.5 28.75 17.5H27.5V8.75C27.5 7.75544 27.1049 6.80161 26.4017 6.09835C25.6984 5.39509 24.7446 5 23.75 5H13.75ZM17.5 11.25C17.5 11.5815 17.3683 11.8995 17.1339 12.1339C16.8995 12.3683 16.5815 12.5 16.25 12.5C15.9185 12.5 15.6005 12.3683 15.3661 12.1339C15.1317 11.8995 15 11.5815 15 11.25C15 10.9185 15.1317 10.6005 15.3661 10.3661C15.6005 10.1317 15.9185 10 16.25 10C16.5815 10 16.8995 10.1317 17.1339 10.3661C17.3683 10.6005 17.5 10.9185 17.5 11.25ZM17.5 17.5C17.5 17.8315 17.3683 18.1495 17.1339 18.3839C16.8995 18.6183 16.5815 18.75 16.25 18.75C15.9185 18.75 15.6005 18.6183 15.3661 18.3839C15.1317 18.1495 15 17.8315 15 17.5C15 17.1685 15.1317 16.8505 15.3661 16.6161C15.6005 16.3817 15.9185 16.25 16.25 16.25C16.5815 16.25 16.8995 16.3817 17.1339 16.6161C17.3683 16.8505 17.5 17.1685 17.5 17.5ZM17.5 23.75C17.5 24.0815 17.3683 24.3995 17.1339 24.6339C16.8995 24.8683 16.5815 25 16.25 25C15.9185 25 15.6005 24.8683 15.3661 24.6339C15.1317 24.3995 15 24.0815 15 23.75C15 23.4185 15.1317 23.1005 15.3661 22.8661C15.6005 22.6317 15.9185 22.5 16.25 22.5C16.5815 22.5 16.8995 22.6317 17.1339 22.8661C17.3683 23.1005 17.5 23.4185 17.5 23.75ZM22.5 11.25C22.5 11.5815 22.3683 11.8995 22.1339 12.1339C21.8995 12.3683 21.5815 12.5 21.25 12.5C20.9185 12.5 20.6005 12.3683 20.3661 12.1339C20.1317 11.8995 20 11.5815 20 11.25C20 10.9185 20.1317 10.6005 20.3661 10.3661C20.6005 10.1317 20.9185 10 21.25 10C21.5815 10 21.8995 10.1317 22.1339 10.3661C22.3683 10.6005 22.5 10.9185 22.5 11.25ZM22.5 17.5C22.5 17.8315 22.3683 18.1495 22.1339 18.3839C21.8995 18.6183 21.5815 18.75 21.25 18.75C20.9185 18.75 20.6005 18.6183 20.3661 18.3839C20.1317 18.1495 20 17.8315 20 17.5C20 17.1685 20.1317 16.8505 20.3661 16.6161C20.6005 16.3817 20.9185 16.25 21.25 16.25C21.5815 16.25 21.8995 16.3817 22.1339 16.6161C22.3683 16.8505 22.5 17.1685 22.5 17.5ZM22.5 23.75C22.5 24.0815 22.3683 24.3995 22.1339 24.6339C21.8995 24.8683 21.5815 25 21.25 25C20.9185 25 20.6005 24.8683 20.3661 24.6339C20.1317 24.3995 20 24.0815 20 23.75C20 23.4185 20.1317 23.1005 20.3661 22.8661C20.6005 22.6317 20.9185 22.5 21.25 22.5C21.5815 22.5 21.8995 22.6317 22.1339 22.8661C22.3683 23.1005 22.5 23.4185 22.5 23.75ZM27.5 23.75C27.5 24.0815 27.3683 24.3995 27.1339 24.6339C26.8995 24.8683 26.5815 25 26.25 25C25.9185 25 25.6005 24.8683 25.3661 24.6339C25.1317 24.3995 25 24.0815 25 23.75C25 23.4185 25.1317 23.1005 25.3661 22.8661C25.6005 22.6317 25.9185 22.5 26.25 22.5C26.5815 22.5 26.8995 22.6317 27.1339 22.8661C27.3683 23.1005 27.5 23.4185 27.5 23.75ZM25 35V30H22.5075V35H25ZM20.0075 35V30H17.5V35H20.0075Z" fill="currentColor"></path></svg>