<svg width="64" height="52" viewBox="0 0 64 52" fill="none" xmlns="http://www.w3.org/2000/svg"><path d="M53.5652 15.8644C54.3065 15.8644 54.9131 16.4725 54.9131 17.2157V50.9995H2.34783C1.60652 50.9995 1 50.3914 1 49.6481V11.8103C1 11.0671 1.60652 10.459 2.34783 10.459H17.9691C18.333 10.459 18.67 10.6076 18.9261 10.8509L23.5222 15.459C23.7783 15.7157 24.1152 15.8509 24.4791 15.8509H53.5652V15.8644Z" stroke="#62646A" stroke-width="1.6" stroke-miterlimit="10" stroke-linecap="round" stroke-linejoin="round"/><path d="M10.4348 40.1886C10.4348 37.2021 12.8474 34.7832 15.8261 34.7832C18.8048 34.7832 21.2174 37.2021 21.2174 40.1886" stroke="#62646A" stroke-width="1.6" stroke-miterlimit="10" stroke-linecap="round" stroke-linejoin="round"/><path d="M15.8262 34.7839C18.0593 34.7839 19.8697 32.9688 19.8697 30.7298C19.8697 28.4908 18.0593 26.6758 15.8262 26.6758C13.593 26.6758 11.7827 28.4908 11.7827 30.7298C11.7827 32.9688 13.593 34.7839 15.8262 34.7839Z" stroke="#62646A" stroke-width="1.6" stroke-miterlimit="10" stroke-linecap="round" stroke-linejoin="round"/><path d="M27.9565 28.0273H45.4783" stroke="#62646A" stroke-width="1.6" stroke-miterlimit="10" stroke-linecap="round" stroke-linejoin="round"/><path d="M27.9565 33.4316H45.4783" stroke="#62646A" stroke-width="1.6" stroke-miterlimit="10" stroke-linecap="round" stroke-linejoin="round"/><path d="M27.9565 38.8379H40.087" stroke="#62646A" stroke-width="1.6" stroke-miterlimit="10" stroke-linecap="round" stroke-linejoin="round"/><path d="M6.39136 10.5V1H49.5218V15.5" stroke="#62646A" stroke-width="1.6" stroke-miterlimit="10" stroke-linecap="round" stroke-linejoin="round"/><path d="M55 21.2695H63L57.6087 50.9992H54.9131" stroke="#62646A" stroke-width="1.6" stroke-miterlimit="10" stroke-linecap="round" stroke-linejoin="round"/></svg>