<svg width="41" height="40" viewBox="0 0 41 40" fill="none" xmlns="http://www.w3.org/2000/svg"><g style="mix-blend-mode:darken"><g clip-path="url(#clip0_2579_16452)"><path d="M34.9368 25.7898C35.4268 25.7898 35.8168 25.4898 35.8168 25.1298V5.4598C35.8168 5.0998 35.4168 4.7998 34.9368 4.7998H4.8468C4.3568 4.7998 3.9668 5.0998 3.9668 5.4598V25.1298C3.9668 25.4898 4.3668 25.7898 4.8468 25.7898H34.9268H34.9368Z" fill="white" stroke="#222325" stroke-width="1.6" stroke-linejoin="round"/><path d="M31.0852 8.87012H8.68516C8.32617 8.87012 8.03516 9.15889 8.03516 9.51512C8.03516 9.87134 8.32617 10.1601 8.68516 10.1601H31.0852C31.4441 10.1601 31.7352 9.87134 31.7352 9.51512C31.7352 9.15889 31.4441 8.87012 31.0852 8.87012Z" fill="#222325"/><path d="M13.5668 26.5596V28.5996L11.4668 30.6996C11.0368 30.4596 10.5268 30.3196 9.9968 30.3196C8.3268 30.3196 6.9668 31.6696 6.9668 33.3496C6.9668 35.0296 8.3268 36.3696 9.9968 36.3696C11.6668 36.3696 13.0168 35.0196 13.0168 33.3496C13.0168 32.8096 12.8768 32.3096 12.6368 31.8696L14.9768 29.5296C15.1368 29.3696 15.2168 29.1596 15.2168 28.9496V26.5596H13.5668ZM9.9968 34.7196C9.2368 34.7196 8.6168 34.1096 8.6168 33.3496C8.6168 32.5896 9.2368 31.9696 9.9968 31.9696C10.3668 31.9696 10.7068 32.1196 10.9568 32.3596H10.9668L10.9768 32.3896C11.2168 32.6296 11.3668 32.9696 11.3668 33.3496C11.3668 34.1096 10.7568 34.7196 9.9968 34.7196ZM20.7168 30.4296V26.5596H19.0668V30.4296C17.7968 30.7896 16.8668 31.9596 16.8668 33.3496C16.8668 35.0196 18.2268 36.3696 19.8968 36.3696C21.5668 36.3696 22.9168 35.0196 22.9168 33.3496C22.9168 31.9596 21.9868 30.7896 20.7168 30.4296ZM19.8968 34.7196C19.1368 34.7196 18.5168 34.1096 18.5168 33.3496C18.5168 32.5896 19.1368 31.9696 19.8968 31.9696C20.6568 31.9696 21.2668 32.5896 21.2668 33.3496C21.2668 34.1096 20.6568 34.7196 19.8968 34.7196ZM29.7968 30.3196C29.2568 30.3196 28.7568 30.4596 28.3268 30.6996L26.2268 28.5996V26.5596H24.5768V28.9496C24.5768 29.1596 24.6568 29.3696 24.8168 29.5296L27.1568 31.8696C26.9068 32.3096 26.7768 32.8096 26.7768 33.3496C26.7768 35.0196 28.1268 36.3696 29.7968 36.3696C31.4668 36.3696 32.8268 35.0196 32.8268 33.3496C32.8268 31.6796 31.4668 30.3196 29.7968 30.3196ZM29.7968 34.7196C29.0368 34.7196 28.4268 34.1096 28.4268 33.3496C28.4268 32.9696 28.5668 32.6296 28.8168 32.3896V32.3696L28.8368 32.3596C29.0868 32.1196 29.4268 31.9696 29.7968 31.9696C30.5568 31.9696 31.1768 32.5896 31.1768 33.3496C31.1768 34.1096 30.5568 34.7196 29.7968 34.7196Z" fill="#222325"/></g></g><defs><clipPath id="clip0_2579_16452"><rect width="33.45" height="32.37" fill="white" transform="translate(3.16602 4)"/></clipPath></defs></svg>