<svg width="70" height="14" viewBox="0 0 96 20" fill="none" xmlns="http://www.w3.org/2000/svg"><path d="M3.88368 12.8936C3.88368 13.9858 4.12342 14.8244 4.43677 15.3317C4.8476 15.9962 5.46038 16.2778 6.08509 16.2778C6.89085 16.2778 7.62797 16.0778 9.04849 14.1132C10.1865 12.5384 11.5274 10.3281 12.4297 8.94237L13.9576 6.59473C15.0191 4.96431 16.2476 3.15185 17.6562 1.92332C18.8061 0.920594 20.0466 0.363525 21.295 0.363525C23.391 0.363525 25.3875 1.57813 26.9154 3.85614C28.5876 6.35101 29.3993 9.49347 29.3993 12.7364C29.3993 14.6643 29.0194 16.0808 28.3728 17.1999C27.748 18.2822 26.5305 19.3635 24.4822 19.3635V16.2778C26.236 16.2778 26.6737 14.6662 26.6737 12.822C26.6737 10.1938 26.0609 7.27714 24.711 5.19311C23.7531 3.71489 22.5116 2.81164 21.1458 2.81164C19.6686 2.81164 18.4798 3.92578 17.1439 5.91232C16.4336 6.96777 15.7044 8.254 14.8858 9.70536L13.9845 11.302C12.174 14.5121 11.7154 15.2432 10.8102 16.4499C9.22357 18.5627 7.8687 19.3635 6.08509 19.3635C3.96923 19.3635 2.63127 18.4473 1.80264 17.0666C1.1262 15.9415 0.793945 14.4653 0.793945 12.7832L3.88368 12.8936Z" fill="white"/><path d="M3.22998 4.074C4.64652 1.89049 6.69076 0.363525 9.03542 0.363525C10.3933 0.363525 11.7432 0.76541 13.1527 1.91635C14.6946 3.17473 16.338 5.24682 18.3882 8.66185L19.1233 9.8874C20.898 12.8438 21.9076 14.3648 22.4985 15.0821C23.2585 16.0032 23.7907 16.2778 24.4821 16.2778C26.2359 16.2778 26.6736 14.6662 26.6736 12.822L29.3992 12.7364C29.3992 14.6643 29.0192 16.0808 28.3726 17.1999C27.7479 18.2822 26.5303 19.3635 24.4821 19.3635C23.2088 19.3635 22.0807 19.087 20.8333 17.9102C19.8744 17.0069 18.7533 15.4024 17.8908 13.96L15.3253 9.67452C14.0381 7.52384 12.8573 5.92028 12.1739 5.1941C11.4388 4.41321 10.4937 3.47017 8.98568 3.47017C7.7651 3.47017 6.72856 4.32667 5.86113 5.63677L3.22998 4.074Z" fill="white"/><path d="M8.98582 3.47017C7.76524 3.47017 6.7287 4.32667 5.86127 5.63677C4.63472 7.48803 3.88368 10.2455 3.88368 12.8936C3.88368 13.9858 4.12342 14.8244 4.43677 15.3317L1.80263 17.0666C1.1262 15.9415 0.793945 14.4653 0.793945 12.7832C0.793945 9.72426 1.63353 6.53604 3.23012 4.074C4.64666 1.89049 6.6909 0.363525 9.03556 0.363525L8.98582 3.47017Z" fill="white"/><path d="M35.4058 0.9646H38.9799L45.057 11.9587L51.135 0.9646H54.6315V19.0295H51.7159V5.18439L46.386 14.7719H43.6504L38.3214 5.18439V19.0295H35.4058V0.9646ZM63.7674 7.70015C61.6765 7.70015 60.4171 9.27387 60.1157 11.2226H67.2123C67.0661 9.21518 65.9082 7.70015 63.7674 7.70015ZM57.2249 12.3328C57.2249 8.23235 59.8749 5.24806 63.8182 5.24806C67.6968 5.24806 70.0126 8.19455 70.0126 12.5516V13.3524H60.1157C60.4668 15.4722 61.8734 16.9007 64.1415 16.9007C65.951 16.9007 67.082 16.3486 68.1544 15.3389L69.7032 17.236C68.2439 18.5779 66.3877 19.3518 64.038 19.3518C59.7695 19.3518 57.2249 16.2392 57.2249 12.3328ZM73.548 7.95879H70.8641V5.57135H73.548V1.62313H76.3611V5.57135H80.4387V7.95879H76.3611V14.0099C76.3611 16.0761 77.0217 16.8102 78.6451 16.8102C79.3862 16.8102 79.811 16.7465 80.4387 16.6421V19.0037C79.6568 19.2245 78.9107 19.326 78.103 19.326C75.066 19.326 73.548 17.6667 73.548 14.3452V7.95879ZM92.2843 10.2806C91.7193 8.85408 90.4589 7.80361 88.6067 7.80361C86.1994 7.80361 84.6585 9.51162 84.6585 12.294C84.6585 15.0067 86.077 16.7973 88.4913 16.7973C90.3893 16.7973 91.7442 15.6931 92.2843 14.3193V10.2806ZM95.0975 19.0295H92.336V17.1454C91.5641 18.2546 90.1595 19.3518 87.8845 19.3518C84.2257 19.3518 81.7806 16.2889 81.7806 12.294C81.7806 8.2612 84.2844 5.24806 88.0397 5.24806C89.8959 5.24806 91.3522 5.99015 92.336 7.30025V5.57135H95.0975V19.0295Z" fill="white"/></svg>