<svg width="53.64" height="14.37" viewBox="0 0 74 20" fill="none" xmlns="http://www.w3.org/2000/svg"><path d="M73.4954 0.149135C73.4594 0.211635 73.4144 0.283063 73.3874 0.345563C72.1452 3.30092 70.9031 6.2652 69.661 9.22055C69.607 9.34555 69.598 9.45269 69.652 9.57769C70.9031 12.8545 72.1542 16.1313 73.4054 19.408C73.4324 19.4705 73.4504 19.533 73.4864 19.6223C73.1623 19.5777 72.8743 19.542 72.5863 19.4973C71.7942 19.3723 71.0111 19.2384 70.2191 19.1134C70.084 19.0955 70.03 19.0241 69.985 18.908C69.31 17.167 68.6259 15.4259 67.9419 13.6759C67.9149 13.6045 67.8878 13.533 67.8428 13.4348C67.7978 13.533 67.7708 13.5866 67.7438 13.6491C67.0508 15.2473 66.3577 16.8366 65.6736 18.4348C65.6106 18.5866 65.5386 18.6134 65.3766 18.5955C64.6206 18.4973 63.8645 18.408 63.0994 18.3187C62.8384 18.292 62.5864 18.2562 62.2983 18.2205C62.3703 18.0598 62.4244 17.917 62.4874 17.7741C63.7115 15.0063 64.9356 12.2384 66.1687 9.47055C66.2317 9.33662 66.2317 9.22948 66.1777 9.09555C65.0256 6.18484 63.8825 3.2652 62.7484 0.336635C62.7214 0.274135 62.7034 0.202706 62.6674 0.122349C62.7394 0.122349 62.7934 0.113421 62.8474 0.113421C63.8285 0.113421 64.8006 0.113421 65.7817 0.113421C65.9167 0.113421 65.9707 0.158064 66.0157 0.274135C66.6367 1.86342 67.2578 3.44377 67.8788 5.03305C67.9059 5.09555 67.9329 5.14913 67.9689 5.24734C68.0139 5.15805 68.0409 5.09555 68.0679 5.03305C68.7339 3.4527 69.4 1.87235 70.057 0.283063C70.1111 0.149135 70.1741 0.104492 70.3181 0.104492C71.3712 0.104492 72.4333 0.104492 73.4864 0.104492C73.4954 0.122349 73.4954 0.140206 73.4954 0.149135Z" fill="white"/><path d="M3.74788 8.6491C3.74788 12.167 3.74788 15.6848 3.74788 19.2027C2.70378 19.3455 1.67768 19.4795 0.642578 19.6223C0.642578 13.1312 0.642578 6.64017 0.642578 0.122314C0.696583 0.122314 0.759589 0.122314 0.822595 0.122314C1.66868 0.122314 2.51476 0.122314 3.35184 0.122314C3.49585 0.122314 3.54986 0.166957 3.59486 0.291957C4.87299 3.82767 6.15111 7.37231 7.42923 10.917C7.45623 10.9884 7.48324 11.0598 7.53724 11.1223C7.53724 7.4616 7.53724 3.80981 7.53724 0.131243C8.57234 0.131243 9.58944 0.131243 10.6155 0.131243C10.6155 6.20267 10.6155 12.283 10.6155 18.3812C10.3545 18.417 10.0935 18.4705 9.82346 18.4973C9.04939 18.5866 8.28432 18.667 7.51024 18.7562C7.33922 18.7741 7.25822 18.7384 7.20421 18.5687C6.0971 15.3366 4.981 12.1045 3.87389 8.87231C3.84689 8.79196 3.81988 8.72053 3.79288 8.64017C3.77488 8.6491 3.76588 8.6491 3.74788 8.6491Z" fill="white"/><path d="M20.7863 10.2653C20.2373 10.2653 19.7062 10.2564 19.1662 10.2653C18.3921 10.2742 17.627 10.2921 16.8529 10.301C16.7359 10.301 16.6729 10.3189 16.6729 10.4617C16.6729 11.8903 16.6729 13.3189 16.6729 14.7474C16.6729 14.7831 16.6819 14.8189 16.6819 14.8724C18.4911 14.7564 20.2823 14.6492 22.1004 14.5331C22.1094 14.6224 22.1184 14.6939 22.1184 14.7564C22.1184 15.5956 22.1184 16.4349 22.1274 17.2653C22.1274 17.4349 22.0644 17.4796 21.9114 17.4885C20.7773 17.5689 19.6342 17.6581 18.5001 17.7474C17.186 17.8546 15.8719 17.9528 14.5667 18.0599C14.2607 18.0867 13.9547 18.1046 13.6396 18.1224C13.6396 12.1224 13.6396 6.13135 13.6396 0.131348C16.4569 0.131348 19.2742 0.131348 22.1184 0.131348C22.1184 0.193848 22.1274 0.256348 22.1274 0.318848C22.1274 1.19385 22.1274 2.06885 22.1274 2.93492C22.1274 3.10456 22.0734 3.14028 21.9114 3.14028C20.2463 3.13135 18.5811 3.14028 16.916 3.14028C16.6729 3.14028 16.6729 3.14028 16.6729 3.37242C16.6729 4.59564 16.6729 5.81885 16.6729 7.04207C16.6729 7.10457 16.6729 7.176 16.6729 7.26528C18.0501 7.24743 19.4092 7.22957 20.7773 7.20278C20.7863 8.2385 20.7863 9.2385 20.7863 10.2653Z" fill="white"/><path d="M44.1435 0.131243C44.1435 1.14017 44.1435 2.13124 44.1435 3.1491C42.2893 3.1491 40.4532 3.1491 38.59 3.1491C38.59 4.4616 38.59 5.74731 38.59 7.05981C39.9761 7.05981 41.3712 7.05981 42.7664 7.05981C42.7754 7.14016 42.7754 7.19374 42.7754 7.25624C42.7754 8.13124 42.7664 9.01516 42.7844 9.89016C42.7844 10.0687 42.7214 10.0955 42.5593 10.0955C41.3172 10.0866 40.0661 10.0955 38.824 10.0955C38.743 10.0955 38.671 10.0955 38.572 10.0955C38.572 12.408 38.572 14.7027 38.572 17.0062C37.5639 17.0062 36.5738 17.0062 35.5747 17.0062C35.5747 11.3812 35.5747 5.75624 35.5747 0.122314C38.437 0.131243 41.2812 0.131243 44.1435 0.131243Z" fill="white"/><path d="M24.1348 3.14921C24.1348 2.13135 24.1348 1.14028 24.1348 0.131348C27.276 0.131348 30.4083 0.131348 33.5586 0.131348C33.5586 1.12242 33.5586 2.13135 33.5586 3.14921C32.5055 3.14921 31.4524 3.14921 30.3813 3.14921C30.3813 7.83672 30.3813 12.5064 30.3813 17.2028C29.3552 17.2028 28.3471 17.2028 27.321 17.2028C27.321 17.1314 27.321 17.051 27.321 16.9707C27.321 12.4528 27.321 7.93494 27.321 3.41707C27.321 3.14921 27.321 3.14921 27.042 3.14921C26.1509 3.14921 25.2599 3.14921 24.3688 3.14921C24.3058 3.14921 24.2338 3.14921 24.1348 3.14921Z" fill="white"/><path d="M46.1147 0.131348C47.1228 0.131348 48.1219 0.131348 49.148 0.131348C49.148 4.87243 49.148 9.61351 49.148 14.3546C50.9032 14.4528 52.6404 14.5421 54.3776 14.6314C54.3776 15.6403 54.3776 16.6225 54.3776 17.6135C51.6323 17.4796 48.878 17.3367 46.1147 17.2028C46.1147 11.5421 46.1147 5.84564 46.1147 0.131348Z" fill="white"/><path d="M59.9941 18.0599C58.995 17.9885 58.0049 17.9081 57.0059 17.8367C57.0059 11.9439 57.0059 6.04207 57.0059 0.131348C57.9959 0.131348 58.986 0.131348 59.9941 0.131348C59.9941 6.1135 59.9941 12.0778 59.9941 18.0599Z" fill="white"/></svg>