<svg width="100%" height="100%" viewBox="0 0 70 71" fill="none" xmlns="http://www.w3.org/2000/svg">
<path d="M18.9583 20.5837H39.375M18.9583 29.3337H29.1667M49.5833 49.7503V52.667C49.5833 54.9876 48.6615 57.2132 47.0205 58.8542C45.3796 60.4951 43.154 61.417 40.8333 61.417H17.5C15.1794 61.417 12.9538 60.4951 11.3128 58.8542C9.67187 57.2132 8.75 54.9876 8.75 52.667V17.667C8.75 15.3463 9.67187 13.1208 11.3128 11.4798C12.9538 9.83886 15.1794 8.91699 17.5 8.91699H40.8333C43.154 8.91699 45.3796 9.83886 47.0205 11.4798C48.6615 13.1208 49.5833 15.3463 49.5833 17.667M50.2555 27.5848L55.8555 34.9931M32.0857 51.9989L28.6148 52.2322C28.2325 52.2511 27.8512 52.1767 27.504 52.0155C27.1567 51.8544 26.8538 51.6112 26.6214 51.307C26.3889 51.0028 26.2339 50.6467 26.1696 50.2693C26.1053 49.8919 26.1337 49.5046 26.2523 49.1406L27.3898 45.8739C27.6928 45.008 28.2398 44.2483 28.9648 43.6864L53.6982 24.9031C54.181 24.5293 54.7334 24.2552 55.3231 24.0968C55.9128 23.9384 56.5281 23.8987 57.1333 23.9801C57.7384 24.0615 58.3214 24.2624 58.8483 24.571C59.3751 24.8797 59.8354 25.29 60.2023 25.7781C60.9501 26.7436 61.2868 27.9651 61.1393 29.1774C60.9919 30.3897 60.3722 31.4949 59.4148 32.2531L34.7107 51.0656C33.952 51.6384 33.0357 51.9642 32.0857 51.9989Z" stroke="#181818" stroke-width="2.5" stroke-linecap="round" stroke-linejoin="round"></path>
</svg>