<svg width="100%" height="100%" viewBox="0 0 70 71" fill="none" xmlns="http://www.w3.org/2000/svg">
<path d="M52.2721 52.7126L60.9768 61.4172M25.0712 52.4403H16.9106C12.2863 52.4403 8.75 48.904 8.75 44.2797V17.0776C8.75 12.4533 12.2863 8.91699 16.9106 8.91699H35.9521C40.5764 8.91699 44.1127 12.4533 44.1127 17.0776V23.0621M16.9132 19.7975H35.9547M16.9132 27.9608H25.3459M56.081 43.1925C56.081 50.5539 50.1134 56.5215 42.752 56.5215C35.3906 56.5215 29.423 50.5539 29.423 43.1925C29.423 35.831 35.3906 29.8634 42.752 29.8634C50.1134 29.8634 56.081 35.831 56.081 43.1925Z" stroke="#181818" stroke-width="2.5" stroke-miterlimit="10" stroke-linecap="round" stroke-linejoin="round"></path>
</svg>