<svg width="20.13" height="7.8" viewBox="0 0 46 20" fill="none" xmlns="http://www.w3.org/2000/svg"><path fill-rule="evenodd" clip-rule="evenodd" d="M0.5 18.3456H7.07694C6.51333 18.0607 6.28964 17.563 6.46289 17.0208C6.66941 16.3815 6.87622 15.7424 7.083 15.1035C7.44714 13.9783 7.81119 12.8534 8.17346 11.7276C8.20417 11.6298 8.24583 11.6043 8.34891 11.6149C8.634 11.6405 8.91691 11.6638 9.202 11.6723C10.088 11.6936 10.9696 11.6532 11.8468 11.5277C12.724 11.4023 13.5793 11.2002 14.4039 10.8855C16.518 10.0774 18.0575 8.69935 18.8821 6.62166C19.1694 5.89861 19.3777 5.15855 19.3997 4.37596C19.4172 3.78902 19.3251 3.22547 19.0597 2.69382C18.6847 1.94312 18.0707 1.43061 17.3097 1.07547C16.3996 0.650148 15.4281 0.488525 14.4214 0.488525H6.31815C6.27867 0.488525 6.24139 0.490652 6.2085 0.492779C6.24385 0.532663 6.28016 0.570706 6.31601 0.60827C6.38912 0.684871 6.46033 0.759483 6.51772 0.843669C6.74141 1.17117 6.72605 1.52844 6.60982 1.88571C6.31016 2.81455 6.01042 3.74347 5.71066 4.67244C4.4024 8.72682 3.09378 12.7824 1.78951 16.8379C1.6338 17.3249 1.35748 17.7162 0.958346 18.033C0.857967 18.1127 0.74915 18.1831 0.641404 18.2528C0.593787 18.2837 0.546378 18.3144 0.5 18.3456ZM8.69261 10.2368C8.68251 10.2341 8.6718 10.2313 8.66028 10.2284C8.7363 9.99001 8.81112 9.75854 8.88563 9.52805C8.91215 9.44602 8.93863 9.36412 8.96511 9.28206C9.75239 6.85346 10.5397 4.42487 11.3226 1.99627C11.3555 1.89632 11.3949 1.85591 11.509 1.86017C11.6761 1.86523 11.8432 1.86547 12.0102 1.86571C12.194 1.86598 12.3778 1.86624 12.5616 1.87293C12.9871 1.88994 13.3928 1.98351 13.7502 2.22169C14.1669 2.50028 14.3774 2.90008 14.4695 3.37006C14.5814 3.94 14.5244 4.50568 14.4037 5.06711C14.1844 6.0815 13.8555 7.05549 13.3204 7.95505C12.8664 8.72064 12.2809 9.36713 11.4761 9.80308C10.634 10.2582 9.73485 10.4134 8.78089 10.2561C8.75382 10.2528 8.72674 10.2457 8.69261 10.2368Z" fill="white"/><path d="M45.5044 1.30733C45.2548 2.10856 45.0053 2.90326 44.7536 3.71101C44.6923 3.66529 44.6375 3.62392 44.585 3.58038C43.9217 3.04913 43.2059 2.60933 42.4026 2.31975C41.7196 2.07155 41.0147 1.95833 40.288 2.01494C39.5218 2.0759 38.8192 2.33282 38.1647 2.72472C37.3 3.24291 36.5952 3.93963 35.9844 4.72997C34.9315 6.09728 34.1807 7.61917 33.6641 9.25864C33.3467 10.2645 33.0774 11.2835 32.9023 12.3242C32.7753 13.0797 32.7053 13.8418 32.7469 14.6103C32.7841 15.2809 32.9067 15.9341 33.246 16.5285C33.6509 17.2383 34.2726 17.6389 35.0738 17.776C35.5422 17.8566 36.0107 17.8326 36.4769 17.7521C36.5601 17.739 36.5995 17.6998 36.6236 17.6215C37.2934 15.4856 37.9655 13.3519 38.6375 11.216C38.8433 10.5628 38.6331 10.025 38.0377 9.67885C37.983 9.64619 37.9261 9.61789 37.8451 9.57217C40.2245 9.57217 42.5711 9.57217 44.944 9.57217C44.8477 9.61571 44.7689 9.64837 44.6923 9.68538C44.029 9.99238 43.6065 10.4931 43.3876 11.192C42.7331 13.2822 42.0567 15.3658 41.4044 17.4582C41.3212 17.726 41.1833 17.874 40.9316 17.9851C39.7845 18.4924 38.5981 18.8647 37.3591 19.0737C36.5667 19.2087 35.7655 19.2631 34.9622 19.2283C33.6312 19.1717 32.3616 18.8734 31.1774 18.2529C30.2821 17.7847 29.6407 17.0684 29.1854 16.1779C28.8198 15.4638 28.614 14.7018 28.5002 13.9114C28.4039 13.2365 28.382 12.5594 28.4214 11.8822C28.509 10.3603 28.8526 8.89504 29.4568 7.4929C30.7286 4.53401 32.9176 2.51135 35.8925 1.30733C36.7528 0.958973 37.6524 0.749957 38.5718 0.619322C39.5175 0.48651 40.4675 0.458206 41.4197 0.519169C42.7922 0.606259 44.1319 0.869706 45.4431 1.28338C45.4584 1.28556 45.4759 1.29427 45.5044 1.30733Z" fill="white"/><path fill-rule="evenodd" clip-rule="evenodd" d="M23.8987 15.1105C23.9161 15.0861 23.9337 15.0621 23.9512 15.0382L23.9512 15.0381C23.9959 14.9772 24.04 14.9169 24.0795 14.8533C24.3473 14.4296 24.5006 13.9692 24.5258 13.4742C24.5441 13.124 24.3862 12.8474 24.0726 12.6312H26.4781C26.3865 14.0427 25.7617 15.2142 24.6814 16.2086C26.0249 17.4428 27.5744 18.329 29.3024 18.9883H29.1765C27.7071 18.9883 26.24 18.9883 24.7707 18.9905C24.6585 18.9905 24.5578 18.971 24.4731 18.9062L24.473 18.906C24.045 18.5818 23.6171 18.2577 23.1937 17.9313C23.0953 17.8556 23.0015 17.7757 22.9168 17.6892C22.8527 17.6244 22.8069 17.633 22.736 17.6806C22.0379 18.1431 21.2895 18.5192 20.493 18.811C19.6393 19.1223 18.7605 19.2823 17.8427 19.2282C16.9524 19.1763 16.1101 18.984 15.3869 18.4609C14.5927 17.8859 14.1349 17.1294 14.0296 16.1869C13.8603 14.6544 14.4439 13.4267 15.7142 12.4777C16.387 11.9741 17.1446 11.6153 17.9411 11.33C18.3782 11.1722 18.82 11.0252 19.2617 10.8782C19.3441 10.8501 19.3715 10.8155 19.367 10.7312C19.3212 9.91632 19.3967 9.11439 19.6164 8.32327C19.8362 7.52782 20.1886 6.79722 20.7997 6.19631C21.4932 5.51543 22.3515 5.13068 23.3333 4.9945C24.0223 4.89939 24.6974 4.96208 25.3337 5.23659C26.0409 5.54137 26.5628 6.01258 26.7367 6.75615C26.8878 7.40461 26.7092 7.99687 26.3339 8.54374C25.9448 9.11007 25.4138 9.54021 24.8302 9.91632C24.1781 10.3341 23.4676 10.6486 22.7568 10.9633L22.5392 11.0598C22.5031 11.0758 22.4671 11.0922 22.4311 11.1086C22.3502 11.1455 22.269 11.1825 22.1867 11.2154C22.1249 11.2413 22.1066 11.2716 22.118 11.3386C22.2576 12.1708 22.5369 12.9598 22.9626 13.6968C23.149 14.0214 23.3521 14.3391 23.555 14.6566L23.5551 14.6566C23.6535 14.8106 23.7519 14.9645 23.8483 15.1191C23.8666 15.1148 23.8826 15.1127 23.8987 15.1105ZM19.6142 12.2616C19.6037 12.2649 19.5948 12.2673 19.5873 12.2693C19.5751 12.2725 19.5663 12.2749 19.5592 12.2789C18.8886 12.5793 18.2798 12.9641 17.7648 13.472C17.1308 14.0989 16.7532 14.8165 16.8813 15.7135C16.9569 16.2474 17.188 16.6992 17.6595 17.0169C18.2065 17.3844 18.8291 17.4795 19.4791 17.4147C20.2894 17.3325 21.0332 17.0537 21.7473 16.6906C21.768 16.6808 21.7868 16.6683 21.8062 16.6554C21.8168 16.6484 21.8275 16.6412 21.8389 16.6344C20.8158 15.3007 20.0994 13.8395 19.6142 12.2616ZM21.9261 9.98882C21.9157 9.99171 21.9031 9.99523 21.887 10.0006C21.8836 9.95787 21.88 9.91745 21.8764 9.8786C21.8703 9.81136 21.8647 9.74884 21.8618 9.68719C21.8137 8.80096 21.9327 7.94067 22.3607 7.13874C22.5896 6.70644 22.8963 6.33465 23.3495 6.08824C23.5646 5.97151 23.7935 5.90667 24.0406 5.94558C24.4938 6.01475 24.6678 6.28278 24.638 6.72157C24.606 7.18197 24.4091 7.5905 24.1505 7.97309C23.631 8.74044 22.9512 9.35864 22.157 9.86876C22.1085 9.90099 22.0558 9.9279 22.0033 9.95471C21.9889 9.96205 21.9745 9.96939 21.9602 9.97683C21.9508 9.98189 21.9407 9.98473 21.9261 9.98882Z" fill="white"/></svg>