<svg width="82.42" height="16" fill="none" xmlns="http://www.w3.org/2000/svg" viewBox="0 0 631.3163 122.55665"><path d="M61.19265,122.18451a60.89874,60.89874,0,1,1,49.84741-25.75293A60.58216,60.58216,0,0,1,61.19265,122.18451Zm.15015-107.8789a46.95014,46.95014,0,1,0,27.0459,8.59375A46.96675,46.96675,0,0,0,61.3428,14.30561Z" style="fill:#fff"/><path d="M159.98464,102.24207V75.90823h11.33821c21.09144,0,33.77071-11.82586,33.77071-29.38177,0-16.58044-12.80119-26.21188-31.33239-26.21188h-27.4311v81.92749Zm13.16692-69.73593c10.85056,0,18.16547,4.99859,18.16547,15.60519,0,9.75339-8.16832,15.60529-18.897,15.60529H159.98464V32.50614ZM394.54914,73.59186c0-16.9464-12.80117-29.74757-29.74747-29.74757A29.5844,29.5844,0,0,0,335.1761,73.83571c0,17.06826,12.31356,29.50362,29.62557,29.50362a29.32873,29.32873,0,0,0,29.74747-29.74747Zm-46.44993,0c0-9.75329,7.1974-17.59678,16.70246-17.31212,10.50836.31473,17.044,7.628,16.82437,17.31211-.2211,9.7507-7.31488,17.31212-16.82437,17.31212-9.50939,0-16.70246-7.55892-16.70246-17.31211Zm174.94936,3.41358a33.44451,33.44451,0,0,0,.36575-5.97385c0-15.971-12.19156-27.1873-27.6749-27.1873A29.14481,29.14481,0,0,0,466.2357,73.348c0,17.43406,11.582,29.99137,29.138,29.99137,11.8258,0,21.701-5.60815,25.84618-13.41077l-10.119-5.60805c-2.68212,4.38889-8.41218,7.43682-14.87374,7.43682-9.02183,0-15.36139-5.48626-16.7025-14.75189Zm-42.79249-9.87519c1.70676-7.55872,7.31491-12.19161,15.11759-12.19161,7.92447,0,13.89837,4.9986,14.62988,12.19161ZM320.912,44.9415l-15.8491,40.84187L290.92069,44.9415H276.16883l21.21337,57.30057-8.778,20.11613h14.02033l32.3078-77.4167Zm310.03219.244a20.14855,20.14855,0,0,0-5.6081-.73156c-5.60815,0-11.94776,3.16978-14.63,8.65608V44.9415h-12.923v57.30057h12.923V71.64119c0-10.60664,7.07117-14.99573,14.38614-14.99573a22.9107,22.9107,0,0,1,5.73.6097l.12195-12.06965ZM588.27357,77.00544a33.44451,33.44451,0,0,0,.36575-5.97385c0-15.971-12.19156-27.1873-27.6749-27.1873A29.14469,29.14469,0,0,0,531.4608,73.348c0,17.43406,11.582,29.99137,29.13781,29.99137,11.82591,0,21.70105-5.60815,25.84624-13.41077l-10.119-5.60805c-2.68218,4.38889-8.41223,7.43682-14.87384,7.43682-9.02168,0-15.36134-5.48626-16.7024-14.75189Zm-42.79244-9.87519c1.70681-7.55872,7.31491-12.19161,15.11748-12.19161,7.92458,0,13.89848,4.9986,14.63,12.19161ZM255.68694,73.46991A17.75848,17.75848,0,0,1,237.5215,91.63537c-9.99714,0-16.7025-7.80262-16.7025-18.16546A18.216,18.216,0,0,1,238.74064,55.4264c10.119,0,16.9463,7.80251,16.9463,18.04351Zm201.77083-3.90134c0-15.971-7.80257-25.72428-22.43251-25.72428-7.68067,0-14.75178,3.29178-18.65312,8.53423v-7.437h-13.045v57.30057h13.045V71.15354c0-9.63144,6.94916-15.72714,15.23949-15.72714,8.29023,0,12.67922,5.60815,12.67922,15.11748v31.69819h13.16692V69.56857ZM255.68694,44.9415v7.437c-3.77936-4.9986-9.87519-8.53423-19.01885-8.53423-15.84909,0-29.016,14.02043-29.016,30.479,0,16.58071,11.3382,29.01607,26.57766,29.01607,9.87522,0,17.31209-3.53553,21.4572-9.38748v8.29022h12.80117V44.9415Z" style="fill:#fff"/></svg>