<svg width="53.01" height="12.69" viewBox="0 0 73 18" fill="none" xmlns="http://www.w3.org/2000/svg"><path fill-rule="evenodd" clip-rule="evenodd" d="M9.25208 0.243164H3.57614C3.18769 0.243164 2.85735 0.495667 2.79668 0.838647L0.501055 13.8609C0.455491 14.1177 0.677963 14.3494 0.969245 14.3494H3.67889C4.06735 14.3494 4.39768 14.0969 4.45836 13.7531L5.07742 10.2409C5.1374 9.89714 5.46843 9.64464 5.85619 9.64464H7.6527C11.3917 9.64464 13.5495 8.02583 14.113 4.81817C14.3668 3.41463 14.1237 2.31186 13.3893 1.53958C12.5826 0.691596 11.1518 0.243164 9.25208 0.243164ZM9.90672 4.99933C9.59637 6.82135 8.04043 6.82135 6.53563 6.82135H5.6792L6.28014 3.41837C6.31571 3.21266 6.51494 3.06104 6.74741 3.06104H7.13983C8.1648 3.06104 9.13165 3.06104 9.63147 3.58393C9.92927 3.89571 10.0206 4.35912 9.90672 4.99933Z" fill="white"/><path fill-rule="evenodd" clip-rule="evenodd" d="M25.7459 5.17557H23.0653C22.837 5.17557 22.6396 5.32817 22.6045 5.53498L22.4858 6.21968L22.2985 5.97142C21.7182 5.20236 20.424 4.94531 19.1323 4.94531C16.1702 4.94531 13.6402 6.99376 13.1475 9.86736C12.8914 11.3004 13.2557 12.6711 14.146 13.627C14.9631 14.5058 16.1316 14.8719 17.5224 14.8719C19.9093 14.8719 21.2326 13.4707 21.2326 13.4707L21.1131 14.1508C21.0682 14.411 21.2876 14.6439 21.5733 14.6439H23.9877C24.3717 14.6439 24.6959 14.3898 24.7564 14.044L26.2051 5.66727C26.251 5.40959 26.0323 5.17557 25.7459 5.17557ZM22.0092 9.93894C21.7506 11.337 20.5351 12.2756 18.985 12.2756C18.2067 12.2756 17.5845 12.0479 17.1851 11.6158C16.7891 11.1869 16.6383 10.5763 16.7644 9.89624C17.006 8.51009 18.242 7.54071 19.7684 7.54071C20.5296 7.54071 21.1481 7.7718 21.556 8.20741C21.9643 8.64741 22.1264 9.26178 22.0092 9.93894Z" fill="white"/><path fill-rule="evenodd" clip-rule="evenodd" d="M40.5956 4.94531H37.863C37.6023 4.94531 37.3571 5.0597 37.2094 5.25109L33.4404 10.153L31.8428 5.44228C31.7426 5.14759 31.4344 4.94531 31.0855 4.94531H28.4004C28.0741 4.94531 27.8473 5.22686 27.9513 5.49813L30.9611 13.2972L28.1313 16.8244C27.9087 17.1024 28.1329 17.4842 28.5174 17.4842H31.247C31.5058 17.4842 31.7484 17.3727 31.8954 17.1852L40.9842 5.60143C41.2017 5.3244 40.9784 4.94531 40.5956 4.94531Z" fill="white"/><path fill-rule="evenodd" clip-rule="evenodd" d="M49.2553 0.243164H43.5783C43.1908 0.243164 42.8604 0.495667 42.7997 0.838647L40.504 13.8609C40.4584 14.1177 40.6807 14.3494 40.9703 14.3494H43.8838C44.1544 14.3494 44.386 14.1728 44.428 13.932L45.0797 10.2409C45.1394 9.89714 45.4707 9.64464 45.8583 9.64464H47.6542C51.3941 9.64464 53.5513 8.02583 54.1155 4.81817C54.3706 3.41463 54.1255 2.31186 53.3911 1.53958C52.5851 0.691596 51.1551 0.243164 49.2553 0.243164ZM49.9103 4.99933C49.6006 6.82135 48.0447 6.82135 46.5389 6.82135H45.6833L46.285 3.41837C46.3208 3.21266 46.5184 3.06104 46.7514 3.06104H47.144C48.1681 3.06104 49.1359 3.06104 49.6357 3.58393C49.9336 3.89571 50.0242 4.35912 49.9103 4.99933Z" fill="white"/><path fill-rule="evenodd" clip-rule="evenodd" d="M65.7459 5.17557H63.0666C62.8369 5.17557 62.6411 5.32817 62.6069 5.53498L62.4882 6.21968L62.2999 5.97142C61.7194 5.20236 60.4263 4.94531 59.1346 4.94531C56.1723 4.94531 53.643 6.99376 53.1503 9.86736C52.8949 11.3004 53.2576 12.6711 54.1481 13.627C54.9666 14.5058 56.1338 14.8719 57.5246 14.8719C59.9113 14.8719 61.2349 13.4707 61.2349 13.4707L61.1155 14.1508C61.0703 14.411 61.2897 14.6439 61.577 14.6439H63.991C64.3732 14.6439 64.699 14.3898 64.7587 14.044L66.2084 5.66727C66.2526 5.40959 66.0332 5.17557 65.7459 5.17557ZM62.0093 9.93894C61.7522 11.337 60.535 12.2756 58.9849 12.2756C58.2081 12.2756 57.5842 12.0479 57.1848 11.6158C56.7889 11.1869 56.6396 10.5763 56.7641 9.89624C57.0074 8.51009 58.2418 7.54071 59.7683 7.54071C60.5293 7.54071 61.1481 7.7718 61.556 8.20741C61.9659 8.64741 62.128 9.26178 62.0093 9.93894Z" fill="white"/><path fill-rule="evenodd" clip-rule="evenodd" d="M69.0485 0.601098L66.791 13.8607C66.7466 14.1177 66.9622 14.3494 67.2427 14.3494H69.5126C69.8898 14.3494 70.2099 14.0969 70.2678 13.7531L72.4941 0.732542C72.5382 0.475478 72.3226 0.243164 72.0419 0.243164H69.5005C69.2761 0.243996 69.083 0.395406 69.0485 0.601098Z" fill="white"/></svg>