<svg width="72" height="72" viewBox="0 0 72 72" fill="none" xmlns="http://www.w3.org/2000/svg"><g filter="url(#filter0_d_7713_15371)"><path d="M36 5.25C49.669 5.25 60.75 16.331 60.75 30C60.75 43.669 49.669 54.75 36 54.75C22.331 54.75 11.25 43.669 11.25 30C11.25 16.331 22.331 5.25 36 5.25Z" fill="white"/><path d="M60.4746 30C60.4746 43.5172 49.5172 54.4746 36 54.4746C22.4828 54.4746 11.5254 43.5172 11.5254 30C11.5254 16.4828 22.4828 5.52539 36 5.52539C49.5172 5.52539 60.4746 16.4828 60.4746 30Z" stroke="#E4E5E7" stroke-width="0.55"/></g><path fill-rule="evenodd" clip-rule="evenodd" d="M50.1168 45.1085C54.2513 41.2998 56.8414 35.8402 56.8414 29.7757C56.8414 18.2649 47.5101 8.93359 35.9993 8.93359C24.4886 8.93359 15.1572 18.2649 15.1572 29.7757C15.1572 35.8406 17.7477 41.3005 21.8826 45.1092C23.0523 39.5967 28.9278 35.4049 35.9998 35.4049C43.0715 35.4049 48.9467 39.5963 50.1168 45.1085ZM35.9998 31.0779C40.3163 31.0779 43.8155 27.5786 43.8155 23.2621C43.8155 18.9455 40.3163 15.4463 35.9998 15.4463C31.6832 15.4463 28.184 18.9455 28.184 23.2621C28.184 27.5786 31.6832 31.0779 35.9998 31.0779Z" fill="url(#paint0_linear_7713_15371)"/><path d="M50.25 60H21V62.25H50.25V60Z" fill="#C5C6C9"/><path d="M42.75 66H28.5V68.25H42.75V66Z" fill="#C5C6C9"/><defs><filter id="filter0_d_7713_15371" x="8.25" y="2.25" width="55.5" height="55.5" filterUnits="userSpaceOnUse" color-interpolation-filters="sRGB"><feFlood flood-opacity="0" result="BackgroundImageFix"/><feColorMatrix in="SourceAlpha" type="matrix" values="0 0 0 0 0 0 0 0 0 0 0 0 0 0 0 0 0 0 127 0" result="hardAlpha"/><feOffset/><feGaussianBlur stdDeviation="1.5"/><feComposite in2="hardAlpha" operator="out"/><feColorMatrix type="matrix" values="0 0 0 0 0 0 0 0 0 0 0 0 0 0 0 0 0 0 0.12 0"/><feBlend mode="normal" in2="BackgroundImageFix" result="effect1_dropShadow_7713_15371"/><feBlend mode="normal" in="SourceGraphic" in2="effect1_dropShadow_7713_15371" result="shape"/></filter><linearGradient id="paint0_linear_7713_15371" x1="49.677" y1="57.7823" x2="19.0651" y2="14.1441" gradientUnits="userSpaceOnUse"><stop stop-color="#BBCE00"/><stop offset="1" stop-color="#005C25"/></linearGradient></defs></svg>