<svg width="80" height="80" viewBox="0 0 80 80" fill="none" xmlns="http://www.w3.org/2000/svg"><g clip-path="url(#clip0_9864_889)"><g filter="url(#filter0_d_9864_889)"><path d="M16.667 6.66666C16.667 4.82571 18.1594 3.33333 20.0003 3.33333H56.667C58.5079 3.33333 60.0003 4.82571 60.0003 6.66666V73.3333C60.0003 75.1743 58.5079 76.6667 56.667 76.6667H20.0003C18.1594 76.6667 16.667 75.1743 16.667 73.3333V6.66666Z" fill="white"/></g><g filter="url(#filter1_d_9864_889)"><path d="M56.667 75.8333V76.6667H20.0003V75.8333H56.667ZM59.167 73.3333V6.66666C59.167 5.28595 58.0477 4.16666 56.667 4.16666H20.0003C18.7059 4.16666 17.6413 5.15046 17.5133 6.41113L17.5003 6.66666V73.3333C17.5003 74.714 18.6196 75.8333 20.0003 75.8333V76.6667L19.6602 76.6488C18.0909 76.4897 16.844 75.2428 16.6849 73.6735L16.667 73.3333V6.66666C16.667 4.82571 18.1594 3.33333 20.0003 3.33333H56.667C58.5079 3.33333 60.0003 4.82571 60.0003 6.66666V73.3333L59.9824 73.6735C59.8233 75.2428 58.5764 76.4897 57.0072 76.6488L56.667 76.6667V75.8333C58.0477 75.8333 59.167 74.714 59.167 73.3333Z" fill="#E4E5E7"/></g><path d="M20 13.3333C20 12.4129 20.7462 11.6667 21.6667 11.6667H55C55.9205 11.6667 56.6667 12.4129 56.6667 13.3333V65C56.6667 65.9205 55.9205 66.6667 55 66.6667H21.6667C20.7462 66.6667 20 65.9205 20 65V13.3333Z" fill="#DADBDD"/><path d="M32.0156 71.1233C32.0156 71.8297 32.5883 72.4023 33.2947 72.4023H42.6745C43.381 72.4023 43.9536 71.8297 43.9536 71.1233C43.9536 70.4169 43.3809 69.8442 42.6745 69.8442H33.2947C32.5883 69.8442 32.0156 70.4169 32.0156 71.1233Z" fill="#C5C6C9"/><path d="M37.1318 8.02432C37.1318 8.73073 37.7045 9.30339 38.4109 9.30339C39.1173 9.30339 39.69 8.73073 39.69 8.02432C39.69 7.31791 39.1173 6.74525 38.4109 6.74525C37.7045 6.74525 37.1318 7.31791 37.1318 8.02432Z" fill="#C5C6C9"/><g filter="url(#filter2_d_9864_889)"><path d="M57.4997 60C46.9142 60 38.333 51.4188 38.333 40.8333C38.333 30.2479 46.9142 21.6667 57.4997 21.6667C68.0851 21.6667 76.6663 30.2479 76.6663 40.8333C76.6663 51.4188 68.0851 60 57.4997 60Z" fill="white"/><path d="M39.2913 40.8333C39.2913 30.7772 47.4435 22.625 57.4997 22.625C67.5559 22.625 75.708 30.7772 75.708 40.8333C75.708 50.8895 67.5559 59.0417 57.4997 59.0417V60C68.0851 60 76.6663 51.4188 76.6663 40.8333C76.6663 30.2479 68.0851 21.6667 57.4997 21.6667C46.9142 21.6667 38.333 30.2479 38.333 40.8333C38.333 51.4188 46.9142 60 57.4997 60V59.0417C47.4435 59.0417 39.2913 50.8895 39.2913 40.8333Z" fill="#E4E5E7"/><path d="M73.333 40.8333C73.333 49.5778 66.2442 56.6667 57.4997 56.6667C48.7552 56.6667 41.6663 49.5778 41.6663 40.8333C41.6663 32.0888 48.7552 25 57.4997 25C66.2442 25 73.333 32.0888 73.333 40.8333Z" fill="url(#paint0_linear_9864_889)"/></g><path d="M57.5146 48.5003C58.3431 48.5003 59.0146 49.1719 59.0146 50.0003C59.0145 50.8286 58.343 51.5003 57.5146 51.5003H57.5C56.6717 51.5003 56.0002 50.8286 56 50.0003C56 49.1719 56.6716 48.5003 57.5 48.5003H57.5146ZM56 44.1664V43.3333C56 41.5124 57.4746 40.4075 58.5381 39.9574C59.4977 39.551 60.1659 38.602 60.166 37.5003C60.166 36.0277 58.9726 34.8335 57.5 34.8333C56.0273 34.8333 54.833 36.0276 54.833 37.5003C54.8328 38.3286 54.1613 39.0003 53.333 39.0003C52.5047 39.0003 51.8332 38.3286 51.833 37.5003C51.833 34.3707 54.3704 31.8333 57.5 31.8333C60.6294 31.8335 63.166 34.3708 63.166 37.5003C63.1659 39.8492 61.7371 41.8607 59.707 42.7201C59.4475 42.8299 59.2401 42.9795 59.1162 43.1195C59 43.2508 59 43.3199 59 43.3333V44.1664C59 44.9947 58.3283 45.6662 57.5 45.6664C56.6716 45.6664 56 44.9948 56 44.1664Z" fill="white"/></g><defs><filter id="filter0_d_9864_889" x="11.667" y="-1.66667" width="53.333" height="83.3333" filterUnits="userSpaceOnUse" color-interpolation-filters="sRGB"><feFlood flood-opacity="0" result="BackgroundImageFix"/><feColorMatrix in="SourceAlpha" type="matrix" values="0 0 0 0 0 0 0 0 0 0 0 0 0 0 0 0 0 0 127 0" result="hardAlpha"/><feOffset/><feGaussianBlur stdDeviation="2.5"/><feColorMatrix type="matrix" values="0 0 0 0 0 0 0 0 0 0 0 0 0 0 0 0 0 0 0.12 0"/><feBlend mode="normal" in2="BackgroundImageFix" result="effect1_dropShadow_9864_889"/><feBlend mode="normal" in="SourceGraphic" in2="effect1_dropShadow_9864_889" result="shape"/></filter><filter id="filter1_d_9864_889" x="11.667" y="-1.66667" width="53.333" height="83.3333" filterUnits="userSpaceOnUse" color-interpolation-filters="sRGB"><feFlood flood-opacity="0" result="BackgroundImageFix"/><feColorMatrix in="SourceAlpha" type="matrix" values="0 0 0 0 0 0 0 0 0 0 0 0 0 0 0 0 0 0 127 0" result="hardAlpha"/><feOffset/><feGaussianBlur stdDeviation="2.5"/><feColorMatrix type="matrix" values="0 0 0 0 0 0 0 0 0 0 0 0 0 0 0 0 0 0 0.12 0"/><feBlend mode="normal" in2="BackgroundImageFix" result="effect1_dropShadow_9864_889"/><feBlend mode="normal" in="SourceGraphic" in2="effect1_dropShadow_9864_889" result="shape"/></filter><filter id="filter2_d_9864_889" x="33.333" y="16.6667" width="48.333" height="48.3333" filterUnits="userSpaceOnUse" color-interpolation-filters="sRGB"><feFlood flood-opacity="0" result="BackgroundImageFix"/><feColorMatrix in="SourceAlpha" type="matrix" values="0 0 0 0 0 0 0 0 0 0 0 0 0 0 0 0 0 0 127 0" result="hardAlpha"/><feOffset/><feGaussianBlur stdDeviation="2.5"/><feColorMatrix type="matrix" values="0 0 0 0 0 0 0 0 0 0 0 0 0 0 0 0 0 0 0.12 0"/><feBlend mode="normal" in2="BackgroundImageFix" result="effect1_dropShadow_9864_889"/><feBlend mode="normal" in="SourceGraphic" in2="effect1_dropShadow_9864_889" result="shape"/></filter><linearGradient id="paint0_linear_9864_889" x1="38.333" y1="41.1697" x2="87.7628" y2="41.1697" gradientUnits="userSpaceOnUse"><stop stop-color="#256020"/><stop offset="1" stop-color="#D0E500"/></linearGradient><clipPath id="clip0_9864_889"><rect width="80" height="80" fill="white"/></clipPath></defs></svg>