<svg
  xmlns="http://www.w3.org/2000/svg"
  viewBox="0 0 50 37"
  width="100%"
  height="100%"
  preserveAspectRatio="xMidYMid meet"
>
  <g fill="#E9E9E9">
    <path d="M46.9 0H2.7C1.2 0 0 1.2 0 2.7v31.7C0 35.8 1.2 37 2.7 37H47c1.5 0 2.7-1.2 2.7-2.7V2.7C49.6 1.2 48.4 0 46.9 0zM2 34.3V2.7c0-.4.3-.7.7-.7H47c.4 0 .7.3.7.7v19.5L40 11.3c-.2-.3-.5-.4-.8-.4-.3 0-.6.2-.8.5l-6.9 10.8-5.1-6.9c-.2-.3-.5-.4-.8-.4-.3 0-.6.2-.8.4L10.4 35H2.7c-.4 0-.7-.3-.7-.7zm44.9.7h-34l12.7-17.4 5.1 6.9c.2.3.5.4.8.4.3 0 .6-.2.8-.5l6.8-10.8 8.3 12v8.6c.2.5-.1.8-.5.8z"/>
    <path d="M13 19.6c3 0 5.4-2.4 5.4-5.4 0-3-2.4-5.4-5.4-5.4-3 0-5.4 2.4-5.4 5.4-.1 3 2.4 5.4 5.4 5.4zm0-8.9c1.9 0 3.4 1.5 3.4 3.4s-1.5 3.4-3.4 3.4-3.4-1.5-3.4-3.4c-.1-1.8 1.5-3.4 3.4-3.4z"/>
  </g>
</svg>