<svg width="16" height="16" viewBox="0 0 16 16" xmlns="http://www.w3.org/2000/svg"><path fill-rule="evenodd" clip-rule="evenodd" d="M8 1.6C4.46538 1.6 1.6 4.46538 1.6 8C1.6 11.5346 4.46538 14.4 8 14.4C11.5346 14.4 14.4 11.5346 14.4 8C14.4 4.46538 11.5346 1.6 8 1.6ZM0 8C0 3.58172 3.58172 0 8 0C12.4183 0 16 3.58172 16 8C16 12.4183 12.4183 16 8 16C3.58172 16 0 12.4183 0 8ZM7.04923 5.61744C6.86818 5.86891 6.8 6.19469 6.8 6.4H5.2C5.2 5.93865 5.33182 5.26443 5.75077 4.68256C6.19909 4.05989 6.93926 3.6 8 3.6C9.33919 3.6 10.3019 4.38025 10.6388 5.39495C10.9694 6.39102 10.6738 7.57898 9.64376 8.26564C9.07519 8.64469 8.94028 8.83688 8.88532 8.96514C8.81377 9.13208 8.8 9.34506 8.8 10H7.2C7.2 9.97079 7.19996 9.94146 7.19992 9.91203C7.19922 9.39218 7.19847 8.83935 7.41468 8.33486C7.65972 7.76312 8.12481 7.35531 8.75624 6.93436C9.13828 6.67966 9.24261 6.26763 9.12025 5.89903C9.00408 5.54907 8.66081 5.2 8 5.2C7.46074 5.2 7.20091 5.40677 7.04923 5.61744ZM8.8 10.8V12.4H7.2V10.8H8.8Z"></path></svg>