<svg width="64" height="65" viewBox="0 0 64 65" fill="none" xmlns="http://www.w3.org/2000/svg"><path d="M31.818 57.062C17.8946 57.062 6.60005 45.7764 6.60005 31.844C6.60005 25.4353 8.98406 19.5886 12.9181 15.1469" stroke="#404145" stroke-width="1.6" stroke-linecap="round" stroke-linejoin="round"/><path d="M14.0518 19.0085L13.9793 13.6603L8.9756 15.5458" stroke="#404145" stroke-width="1.6" stroke-linecap="round" stroke-linejoin="round"/><path d="M31.7822 6.62634C45.7055 6.62634 57.0001 17.9119 57.0001 31.8443C57.0001 38.253 54.6161 44.0997 50.682 48.5414" stroke="#404145" stroke-width="1.6" stroke-linecap="round" stroke-linejoin="round"/><path d="M49.5494 44.6801L49.6219 50.0282L54.6166 48.1337" stroke="#404145" stroke-width="1.6" stroke-linecap="round" stroke-linejoin="round"/><path d="M31.7545 48.6143C41.0161 48.6143 48.5242 41.1063 48.5242 31.8447C48.5242 22.583 41.0161 15.075 31.7545 15.075C22.4929 15.075 14.9849 22.583 14.9849 31.8447C14.9849 41.1063 22.4929 48.6143 31.7545 48.6143Z" stroke="#404145" stroke-width="1.6" stroke-linecap="round" stroke-linejoin="round"/><path d="M25.6365 31.0608L29.9274 35.8414L37.9728 27.4754" stroke="#404145" stroke-width="1.6" stroke-linecap="round" stroke-linejoin="round"/></svg>