<svg xmlns="http://www.w3.org/2000/svg" width="40" height="40" viewBox="0 0 40 40" fill="none"><path d="M17.9575 5.28206C18.1006 5.1651 18.2679 5.08133 18.4473 5.03681C18.6267 4.99228 18.8138 4.9881 18.995 5.02456L31.495 7.52456C31.7783 7.58118 32.0332 7.73415 32.2164 7.95748C32.3996 8.1808 32.4998 8.46069 32.5 8.74956V31.2421C32.4998 31.5309 32.3996 31.8108 32.2164 32.0341C32.0332 32.2575 31.7783 32.4104 31.495 32.4671L18.995 34.9671C18.8137 35.0033 18.6267 34.9989 18.4473 34.9541C18.2679 34.9093 18.1007 34.8253 17.9577 34.7082C17.8148 34.591 17.6995 34.4436 17.6204 34.2765C17.5412 34.1095 17.5001 33.9269 17.5 33.7421V6.24956L17.9575 5.28206ZM25 19.9946C25 19.663 24.8683 19.3451 24.6339 19.1107C24.3995 18.8763 24.0815 18.7446 23.75 18.7446C23.4185 18.7446 23.1005 18.8763 22.8661 19.1107C22.6317 19.3451 22.5 19.663 22.5 19.9946C22.5 20.3261 22.6317 20.644 22.8661 20.8784C23.1005 21.1129 23.4185 21.2446 23.75 21.2446C24.0815 21.2446 24.3995 21.1129 24.6339 20.8784C24.8683 20.644 25 20.3261 25 19.9946ZM15 7.49956H8.75C8.41848 7.49956 8.10054 7.63125 7.86612 7.86567C7.6317 8.1001 7.5 8.41804 7.5 8.74956V31.2421C7.5 31.5736 7.6317 31.8915 7.86612 32.1259C8.10054 32.3604 8.41848 32.4921 8.75 32.4921H15V7.49956ZM17.9575 5.28206C17.8144 5.3994 17.6991 5.54705 17.62 5.71437C17.5409 5.88168 17.4999 6.06448 17.5 6.24956L17.9575 5.28206Z" fill="currentColor"></path></svg>