<svg width="100%" height="100%" viewBox="0 0 70 71" fill="none" xmlns="http://www.w3.org/2000/svg">
<path d="M33.541 61.417C53.9577 55.5837 55.416 42.7212 55.416 42.7212V16.0045L33.541 8.91699L11.666 16.0045V42.7212C11.666 42.7212 13.1243 55.5837 33.541 61.417Z" stroke="#181818" stroke-width="2.5" stroke-linecap="round" stroke-linejoin="round"></path>
<path d="M39.0929 42.4522L35.2721 31.923C36.404 31.5177 37.3565 30.7258 37.9616 29.6869C38.5668 28.6481 38.7859 27.4289 38.5802 26.2444C38.3745 25.0598 37.7572 23.9859 36.8372 23.2119C35.9172 22.4379 34.7535 22.0135 33.5513 22.0135C32.349 22.0135 31.1853 22.4379 30.2653 23.2119C29.3453 23.9859 28.7281 25.0598 28.5224 26.2444C28.3167 27.4289 28.5357 28.6481 29.1409 29.6869C29.7461 30.7258 30.6985 31.5177 31.8304 31.923L28.0096 42.4522H39.0929Z" stroke="#181818" stroke-width="2.5" stroke-linecap="round" stroke-linejoin="round"></path>
</svg>