<svg width="12" height="12" viewBox="0 0 12 12" fill="none" xmlns="http://www.w3.org/2000/svg">
<path d="M4.5 0.375C4.3763 1.50406 3.91461 2.71149 2.25 3C3.91461 3.28851 4.3763 4.49594 4.5 5.625C4.68019 4.48345 4.96169 3.38052 6.75 3C4.96169 2.61948 4.68019 1.51655 4.5 0.375Z" fill="#1757D7"/>
<path d="M8.625 2.625C8.43945 4.39923 7.74691 6.29662 5.25 6.75C7.74691 7.20338 8.43945 9.10077 8.625 10.875C8.89529 9.08113 9.31753 7.34796 12 6.75C9.31753 6.15204 8.89529 4.41887 8.625 2.625Z" fill="#1757D7"/>
<path d="M3 6.375C2.85568 7.50406 2.31704 8.71149 0.375 9C2.31704 9.28851 2.85568 10.4959 3 11.625C3.21023 10.4834 3.53864 9.38052 5.625 9C3.53864 8.61948 3.21023 7.51655 3 6.375Z" fill="#1757D7"/>
</svg>
