<svg width="40" height="40" viewBox="0 0 40 40" fill="none" xmlns="http://www.w3.org/2000/svg"><g style="mix-blend-mode:darken"><path d="M28.3058 14.9971C28.3058 16.7974 29.7651 18.2567 31.5654 18.2567C33.3656 18.2567 34.825 16.7974 34.825 14.9971C34.825 13.1969 33.3656 11.7375 31.5654 11.7375C29.7651 11.7375 28.3058 13.1969 28.3058 14.9971Z" stroke="#212121" stroke-width="1.6" stroke-linecap="round" stroke-linejoin="round"/><path d="M23.7096 29.3445C23.7096 25.2103 27.2031 21.8584 31.5121 21.8584C33.7989 21.8584 35.856 22.8025 37.2832 24.3065" stroke="#212121" stroke-width="1.6" stroke-linecap="round" stroke-linejoin="round"/><path d="M11.5067 14.9971C11.5067 16.7974 10.0474 18.2567 8.24712 18.2567C6.44688 18.2567 4.9875 16.7974 4.9875 14.9971C4.9875 13.1969 6.44688 11.7375 8.24712 11.7375C10.0474 11.7375 11.5067 13.1969 11.5067 14.9971Z" stroke="#212121" stroke-width="1.6" stroke-linecap="round" stroke-linejoin="round"/><path d="M16.1029 29.3445C16.1029 25.2103 12.6094 21.8584 8.30041 21.8584C6.01362 21.8584 3.95647 22.8025 2.5293 24.3065" stroke="#212121" stroke-width="1.6" stroke-linecap="round" stroke-linejoin="round"/><path d="M19.9385 16.4425C22.4287 16.4425 24.4474 14.4238 24.4474 11.9336C24.4474 9.44348 22.4287 7.4248 19.9385 7.4248C17.4484 7.4248 15.4297 9.44348 15.4297 11.9336C15.4297 14.4238 17.4484 16.4425 19.9385 16.4425Z" fill="white" stroke="#212121" stroke-width="1.6" stroke-linecap="round" stroke-linejoin="round"/><path d="M20.0003 21.3838C12.7055 21.3838 6.79102 27.1316 6.79102 34.221H33.2095C33.2095 27.1316 27.2951 21.3838 20.0003 21.3838Z" fill="white" stroke="#212121" stroke-width="1.6" stroke-linecap="round" stroke-linejoin="round"/></g></svg>