<svg width="142" height="142" viewBox="0 0 142 142" fill="none" xmlns="http://www.w3.org/2000/svg">
<path d="M0 11C0 4.92487 4.92487 0 11 0H131C137.075 0 142 4.92487 142 11V131C142 137.075 137.075 142 131 142H11C4.92487 142 0 137.075 0 131V11Z" fill="#FAFAFA"/>
<g clip-path="url(#clip0_5397_39187)">
<g filter="url(#filter0_d_5397_39187)">
<rect x="36" y="36.0001" width="63.3333" height="60" rx="3.33333" fill="white"/>
<rect x="36" y="36.0001" width="63.3333" height="60" rx="3.33333" stroke="#E4E5E7" stroke-width="0.833333"/>
<rect x="42.667" y="42.6667" width="16.6667" height="16.6667" fill="#E8F094"/>
<path d="M42.667 64.3335H59.3337V81.0002H42.667V64.3335Z" fill="#E8F094"/>
<rect x="42.667" y="86.0001" width="16.6667" height="5" fill="#DADBDD"/>
<path d="M64.333 46.0001H92.6663V48.5001H64.333V46.0001Z" fill="#C5C6C9"/>
<path d="M64.333 52.6667H80.9997V55.1667H64.333V52.6667Z" fill="#C5C6C9"/>
<path d="M64.333 67.6667H92.6663V70.1667H64.333V67.6667Z" fill="#C5C6C9"/>
<path d="M64.333 74.3334H80.9997V76.8334H64.333V74.3334Z" fill="#C5C6C9"/>
<path d="M62.667 91.0001H91.0003V94.3335H62.667V91.0001Z" fill="#C5C6C9"/>
</g>
<g filter="url(#filter1_d_5397_39187)">
<rect x="47.667" y="79.3335" width="58.3333" height="26.6667" rx="3.33333" fill="white"/>
<rect x="48.0837" y="79.7502" width="57.5" height="25.8333" rx="2.91667" stroke="#E4E5E7" stroke-width="0.833333"/>
<rect x="52.667" y="84.3335" width="16.6667" height="16.6667" fill="url(#paint0_linear_5397_39187)"/>
<path d="M62.0619 91.6914H66V93.6421H62.0619V97.6667H59.9588V93.6421H56V91.6914H59.9588V87.6667H62.0619V91.6914Z" fill="white"/>
<path d="M74.334 87.6667H99.334V90.1667H74.334V87.6667Z" fill="#C5C6C9"/>
<path d="M74.334 94.3334H91.0007V96.8334H74.334V94.3334Z" fill="#C5C6C9"/>
</g>
</g>
<defs>
<filter id="filter0_d_5397_39187" x="30.583" y="30.5835" width="74.167" height="70.8333" filterUnits="userSpaceOnUse" color-interpolation-filters="sRGB">
<feFlood flood-opacity="0" result="BackgroundImageFix"/>
<feColorMatrix in="SourceAlpha" type="matrix" values="0 0 0 0 0 0 0 0 0 0 0 0 0 0 0 0 0 0 127 0" result="hardAlpha"/>
<feOffset/>
<feGaussianBlur stdDeviation="2.5"/>
<feColorMatrix type="matrix" values="0 0 0 0 0 0 0 0 0 0 0 0 0 0 0 0 0 0 0.12 0"/>
<feBlend mode="normal" in2="BackgroundImageFix" result="effect1_dropShadow_5397_39187"/>
<feBlend mode="normal" in="SourceGraphic" in2="effect1_dropShadow_5397_39187" result="shape"/>
</filter>
<filter id="filter1_d_5397_39187" x="42.667" y="74.3335" width="68.333" height="36.6666" filterUnits="userSpaceOnUse" color-interpolation-filters="sRGB">
<feFlood flood-opacity="0" result="BackgroundImageFix"/>
<feColorMatrix in="SourceAlpha" type="matrix" values="0 0 0 0 0 0 0 0 0 0 0 0 0 0 0 0 0 0 127 0" result="hardAlpha"/>
<feOffset/>
<feGaussianBlur stdDeviation="2.5"/>
<feComposite in2="hardAlpha" operator="out"/>
<feColorMatrix type="matrix" values="0 0 0 0 0 0 0 0 0 0 0 0 0 0 0 0 0 0 0.12 0"/>
<feBlend mode="normal" in2="BackgroundImageFix" result="effect1_dropShadow_5397_39187"/>
<feBlend mode="normal" in="SourceGraphic" in2="effect1_dropShadow_5397_39187" result="shape"/>
</filter>
<linearGradient id="paint0_linear_5397_39187" x1="52.667" y1="79.3335" x2="75.7955" y2="87.147" gradientUnits="userSpaceOnUse">
<stop stop-color="#005C25"/>
<stop offset="1" stop-color="#BBCE00"/>
</linearGradient>
<clipPath id="clip0_5397_39187">
<rect width="80" height="80" fill="white" transform="translate(31 31)"/>
</clipPath>
</defs>
</svg>
