<svg xmlns="http://www.w3.org/2000/svg" width="40" height="40" viewBox="0 0 40 40" fill="none"><path d="M8 4C6.93913 4 5.92172 4.42143 5.17157 5.17157C4.42143 5.92172 4 6.93913 4 8V34C4 34.5304 4.21071 35.0391 4.58579 35.4142C4.96086 35.7893 5.46957 36 6 36H21C21.2652 36 21.5196 35.8946 21.7071 35.7071C21.8946 35.5196 22 35.2652 22 35V31C22 30.7348 22.1054 30.4804 22.2929 30.2929C22.4804 30.1054 22.7348 30 23 30H29C29.2652 30 29.5196 30.1054 29.7071 30.2929C29.8946 30.4804 30 30.7348 30 31V35C30 35.2652 30.1054 35.5196 30.2929 35.7071C30.4804 35.8946 30.7348 36 31 36H34C34.5304 36 35.0391 35.7893 35.4142 35.4142C35.7893 35.0391 36 34.5304 36 34V14C36 12.9391 35.5786 11.9217 34.8284 11.1716C34.0783 10.4214 33.0609 10 32 10H24V8C24 6.93913 23.5786 5.92172 22.8284 5.17157C22.0783 4.42143 21.0609 4 20 4H8ZM22 10H20C18.9391 10 17.9217 10.4214 17.1716 11.1716C16.4214 11.9217 16 12.9391 16 14V34H6V8C6 7.46957 6.21071 6.96086 6.58579 6.58579C6.96086 6.21071 7.46957 6 8 6H20C20.5304 6 21.0391 6.21071 21.4142 6.58579C21.7893 6.96086 22 7.46957 22 8V10ZM10.5 19C10.8978 19 11.2794 18.842 11.5607 18.5607C11.842 18.2794 12 17.8978 12 17.5C12 17.1022 11.842 16.7206 11.5607 16.4393C11.2794 16.158 10.8978 16 10.5 16C10.1022 16 9.72064 16.158 9.43934 16.4393C9.15804 16.7206 9 17.1022 9 17.5C9 17.8978 9.15804 18.2794 9.43934 18.5607C9.72064 18.842 10.1022 19 10.5 19ZM12 11.5C12 11.8978 11.842 12.2794 11.5607 12.5607C11.2794 12.842 10.8978 13 10.5 13C10.1022 13 9.72064 12.842 9.43934 12.5607C9.15804 12.2794 9 11.8978 9 11.5C9 11.1022 9.15804 10.7206 9.43934 10.4393C9.72064 10.158 10.1022 10 10.5 10C10.8978 10 11.2794 10.158 11.5607 10.4393C11.842 10.7206 12 11.1022 12 11.5ZM10.5 31C10.8978 31 11.2794 30.842 11.5607 30.5607C11.842 30.2794 12 29.8978 12 29.5C12 29.1022 11.842 28.7206 11.5607 28.4393C11.2794 28.158 10.8978 28 10.5 28C10.1022 28 9.72064 28.158 9.43934 28.4393C9.15804 28.7206 9 29.1022 9 29.5C9 29.8978 9.15804 30.2794 9.43934 30.5607C9.72064 30.842 10.1022 31 10.5 31ZM12 23.5C12 23.8978 11.842 24.2794 11.5607 24.5607C11.2794 24.842 10.8978 25 10.5 25C10.1022 25 9.72064 24.842 9.43934 24.5607C9.15804 24.2794 9 23.8978 9 23.5C9 23.1022 9.15804 22.7206 9.43934 22.4393C9.72064 22.158 10.1022 22 10.5 22C10.8978 22 11.2794 22.158 11.5607 22.4393C11.842 22.7206 12 23.1022 12 23.5ZM22.5 19C22.1022 19 21.7206 18.842 21.4393 18.5607C21.158 18.2794 21 17.8978 21 17.5C21 17.1022 21.158 16.7206 21.4393 16.4393C21.7206 16.158 22.1022 16 22.5 16C22.8978 16 23.2794 16.158 23.5607 16.4393C23.842 16.7206 24 17.1022 24 17.5C24 17.8978 23.842 18.2794 23.5607 18.5607C23.2794 18.842 22.8978 19 22.5 19ZM24 23.5C24 23.8978 23.842 24.2794 23.5607 24.5607C23.2794 24.842 22.8978 25 22.5 25C22.1022 25 21.7206 24.842 21.4393 24.5607C21.158 24.2794 21 23.8978 21 23.5C21 23.1022 21.158 22.7206 21.4393 22.4393C21.7206 22.158 22.1022 22 22.5 22C22.8978 22 23.2794 22.158 23.5607 22.4393C23.842 22.7206 24 23.1022 24 23.5ZM29.5 19C29.1022 19 28.7206 18.842 28.4393 18.5607C28.158 18.2794 28 17.8978 28 17.5C28 17.1022 28.158 16.7206 28.4393 16.4393C28.7206 16.158 29.1022 16 29.5 16C29.8978 16 30.2794 16.158 30.5607 16.4393C30.842 16.7206 31 17.1022 31 17.5C31 17.8978 30.842 18.2794 30.5607 18.5607C30.2794 18.842 29.8978 19 29.5 19ZM31 23.5C31 23.8978 30.842 24.2794 30.5607 24.5607C30.2794 24.842 29.8978 25 29.5 25C29.1022 25 28.7206 24.842 28.4393 24.5607C28.158 24.2794 28 23.8978 28 23.5C28 23.1022 28.158 22.7206 28.4393 22.4393C28.7206 22.158 29.1022 22 29.5 22C29.8978 22 30.2794 22.158 30.5607 22.4393C30.842 22.7206 31 23.1022 31 23.5Z" fill="currentColor"></path></svg>