<svg width="87" height="88" viewBox="0 0 87 88" fill="none" xmlns="http://www.w3.org/2000/svg"><path d="M86.1211 43.6719C86.1211 45.1991 85.0095 46.7122 82.8543 48.1341C80.709 49.5496 77.5882 50.8339 73.7095 51.9164C65.9555 54.0803 55.2292 55.4219 43.3711 55.4219C31.513 55.4219 20.7867 54.0803 13.0327 51.9164C9.15396 50.8339 6.0332 49.5496 3.88793 48.1341C1.73272 46.7122 0.621094 45.1991 0.621094 43.6719C0.621094 42.1447 1.73272 40.6316 3.88793 39.2096C6.0332 37.7942 9.15396 36.5098 13.0327 35.4274C20.7867 33.2635 31.513 31.9219 43.3711 31.9219C55.2292 31.9219 65.9555 33.2635 73.7095 35.4274C77.5882 36.5098 80.709 37.7942 82.8543 39.2096C85.0095 40.6316 86.1211 42.1447 86.1211 43.6719Z" stroke="black" stroke-width="0.5"></path><path d="M42.6191 1.21768C44.1363 1.18005 45.6676 2.25061 47.1346 4.36497C48.5948 6.4694 49.9488 9.54989 51.1208 13.3913C53.4638 21.0706 55.0628 31.7344 55.3561 43.5599C55.6494 55.3854 54.581 66.1154 52.6216 73.9014C51.6414 77.7962 50.4418 80.94 49.0878 83.1143C47.7274 85.2988 46.251 86.4439 44.7339 86.4815C43.2167 86.5192 41.6854 85.4486 40.2184 83.3342C38.7582 81.2298 37.4043 78.1493 36.2322 74.3079C33.8892 66.6286 32.2902 55.9648 31.9969 44.1393C31.7036 32.3138 32.772 21.5838 34.7314 13.7978C35.7116 9.90301 36.9112 6.75918 38.2652 4.58495C39.6257 2.40046 41.102 1.25531 42.6191 1.21768Z" stroke="black" stroke-width="0.5"></path></svg>