<svg xmlns="http://www.w3.org/2000/svg" width="48" height="48" viewBox="0 0 48 48" fill="none"><path d="M20.8733 10.9539C21.8028 10.3315 22.8894 10 24 10C25.1105 10 26.1971 10.3315 27.1266 10.9539L39.4826 19.2264C39.6403 19.3321 39.7701 19.476 39.8604 19.6455C39.9507 19.8149 39.9986 20.0046 40 20.1976C40.0013 20.3906 39.9561 20.581 39.8682 20.7518C39.7803 20.9226 39.6525 21.0684 39.4963 21.1764L27.2044 29.697C26.2587 30.3527 25.143 30.7031 24.0011 30.7031C22.8592 30.7031 21.7434 30.3527 20.7978 29.697L10.2864 22.4147V29.8047C10.2864 30.1151 10.166 30.4128 9.95166 30.6323C9.73735 30.8518 9.44667 30.9751 9.14358 30.9751C8.8405 30.9751 8.54982 30.8518 8.3355 30.6323C8.12119 30.4128 8.00079 30.1151 8.00079 29.8047V20.4413C8.00079 20.4039 8.00079 20.3641 8.00536 20.3243C7.98519 20.1112 8.02221 19.8966 8.11244 19.7035C8.20267 19.5105 8.34267 19.3463 8.51733 19.2288L20.8733 10.9539ZM12.572 32.1432V26.8225L19.5156 31.6376C20.8394 32.5554 22.4014 33.0459 24 33.0459C25.5985 33.0459 27.1605 32.5554 28.4843 31.6376L35.4279 26.8225V32.1455C35.428 32.4234 35.3316 32.6923 35.1559 32.904L35.1537 32.9087L35.1491 32.9133L35.1354 32.9297L35.0897 32.9812C34.854 33.2445 34.6077 33.4975 34.3514 33.7397C33.8486 34.2149 33.1126 34.8422 32.1618 35.4719C30.2648 36.7266 27.4786 38 24.0022 38C20.5213 38 17.7374 36.7266 15.8381 35.4719C15.0606 34.9596 14.3272 34.3801 13.6462 33.7397C13.3906 33.4976 13.145 33.2445 12.9102 32.9812L12.8645 32.9297L12.8508 32.9133L12.8462 32.9087L13.7148 32.1479C12.844 32.904 12.8462 32.9063 12.8462 32.9063C12.6697 32.694 12.5726 32.4244 12.572 32.1455V32.1432Z" fill="currentColor"></path></svg>