<svg width="14" height="13" viewBox="0 0 14 13" fill="none" xmlns="http://www.w3.org/2000/svg"><path d="M12.6097 6.2472H4.51655M1.65988 6.2472H0.491272M1.65988 6.2472C1.65988 5.86847 1.81033 5.50525 2.07813 5.23745C2.34594 4.96964 2.70915 4.81919 3.08789 4.81919C3.46662 4.81919 3.82984 4.96964 4.09764 5.23745C4.36544 5.50525 4.51589 5.86847 4.51589 6.2472C4.51589 6.62593 4.36544 6.98915 4.09764 7.25695C3.82984 7.52476 3.46662 7.67521 3.08789 7.67521C2.70915 7.67521 2.34594 7.52476 2.07813 7.25695C1.81033 6.98915 1.65988 6.62593 1.65988 6.2472ZM12.6097 10.5751H8.84445M8.84445 10.5751C8.84445 10.9539 8.69364 11.3176 8.42578 11.5854C8.15791 11.8533 7.79461 12.0038 7.41579 12.0038C7.03706 12.0038 6.67384 11.8527 6.40604 11.5849C6.13824 11.3171 5.98779 10.9538 5.98779 10.5751M8.84445 10.5751C8.84445 10.1963 8.69364 9.83332 8.42578 9.56545C8.15791 9.29759 7.79461 9.1471 7.41579 9.1471C7.03706 9.1471 6.67384 9.29755 6.40604 9.56536C6.13824 9.83316 5.98779 10.1964 5.98779 10.5751M5.98779 10.5751H0.491272M12.6097 1.91929H10.5757M7.71908 1.91929H0.491272M7.71908 1.91929C7.71908 1.54056 7.86953 1.17734 8.13733 0.909541C8.40514 0.641737 8.76836 0.491287 9.14709 0.491287C9.33461 0.491287 9.52031 0.528224 9.69356 0.599988C9.86681 0.671752 10.0242 0.776938 10.1568 0.909541C10.2894 1.04214 10.3946 1.19957 10.4664 1.37282C10.5382 1.54607 10.5751 1.73177 10.5751 1.91929C10.5751 2.10682 10.5382 2.29251 10.4664 2.46577C10.3946 2.63902 10.2894 2.79644 10.1568 2.92905C10.0242 3.06165 9.86681 3.16684 9.69356 3.2386C9.52031 3.31036 9.33461 3.3473 9.14709 3.3473C8.76836 3.3473 8.40514 3.19685 8.13733 2.92905C7.86953 2.66124 7.71908 2.29802 7.71908 1.91929Z" stroke="#ffff" stroke-width="0.982573" stroke-miterlimit="10" stroke-linecap="round"></path></svg>