<svg width="14" height="12" viewBox="0 0 14 12" fill="none" xmlns="http://www.w3.org/2000/svg"><path d="M4.235 0.0760014C4.38271 -0.0163155 4.56781 -0.0251101 4.72361 0.052787L9.47279 2.42738L13.235 0.0760014C13.3891 -0.0203325 13.5834 -0.0254334 13.7424 0.0626794C13.9014 0.150792 14 0.318238 14 0.500001V9C14 9.1724 13.9112 9.33263 13.765 9.424L9.765 11.924C9.61729 12.0163 9.43219 12.0251 9.27639 11.9472L4.52721 9.57262L0.765 11.924C0.610865 12.0203 0.416593 12.0254 0.257616 11.9373C0.0986385 11.8492 0 11.6818 0 11.5V3C0 2.82761 0.0888098 2.66737 0.235001 2.576L4.235 0.0760014ZM5 8.69098L9 10.691V3.30902L5 1.30902V8.69098ZM4 1.40212L1 3.27712V10.5979L4 8.72288V1.40212ZM10 3.27712V10.5979L13 8.72288V1.40212L10 3.27712Z" fill="#0B3849"></path></svg>