<svg width="56" height="80" viewBox="0 0 56 80" fill="none" xmlns="http://www.w3.org/2000/svg"><path d="M20.02 3.43037C20.16 2.95042 20.84 2.95042 20.98 3.43037L25.4304 18.6843C25.551 19.0976 25.8434 19.4392 26.2331 19.6221L38.8587 25.5474C39.2421 25.7273 39.2421 26.2727 38.8587 26.4526L26.2331 32.3779C25.8434 32.5608 25.551 32.9024 25.4304 33.3157L20.98 48.5696C20.84 49.0496 20.16 49.0496 20.02 48.5696L15.5696 33.3157C15.449 32.9024 15.1566 32.5608 14.7669 32.3779L2.14135 26.4526C1.75791 26.2727 1.75791 25.7273 2.14135 25.5474L14.7669 19.6221C15.1566 19.4392 15.449 19.0976 15.5696 18.6843L20.02 3.43037Z" fill="#3F4866" stroke="white"></path><path d="M40.149 44.7541C40.2891 44.2744 40.9687 44.2744 41.1088 44.7541L44.0737 54.9032C44.1945 55.3165 44.487 55.658 44.8769 55.8408L53.4849 59.8754C53.8686 60.0552 53.8686 60.601 53.4849 60.7809L44.8769 64.8155C44.487 64.9982 44.1945 65.3397 44.0737 65.7531L41.1088 75.9021C40.9687 76.3819 40.2891 76.3819 40.149 75.9021L37.1841 65.7531C37.0634 65.3397 36.7708 64.9982 36.3809 64.8155L27.773 60.7809C27.3892 60.601 27.3892 60.0552 27.773 59.8754L36.3809 55.8408C36.7708 55.658 37.0634 55.3165 37.1841 54.9032L40.149 44.7541Z" fill="#3F4866" stroke="white"></path></svg>