<svg xmlns="http://www.w3.org/2000/svg" width="24" height="24" viewBox="0 0 24 24" fill="none"><path d="M10.4213 2.08274C10.862 1.70809 11.4216 1.50238 12 1.50238C12.5784 1.50238 13.138 1.70809 13.5787 2.08274L20.8913 8.29799C21.1604 8.5268 21.3766 8.81139 21.5249 9.13203C21.6732 9.45268 21.75 9.80172 21.75 10.155V19.875C21.75 20.3723 21.5525 20.8492 21.2008 21.2008C20.8492 21.5525 20.3723 21.75 19.875 21.75H16.875C16.3777 21.75 15.9008 21.5525 15.5492 21.2008C15.1975 20.8492 15 20.3723 15 19.875V15C15 14.6033 14.8429 14.2228 14.563 13.9417C14.2832 13.6606 13.9034 13.5018 13.5068 13.5H10.4925C10.096 13.502 9.71637 13.6609 9.43669 13.942C9.157 14.2231 9 14.6035 9 15V19.875C9 20.1212 8.9515 20.365 8.85727 20.5925C8.76305 20.82 8.62494 21.0267 8.45083 21.2008C8.27672 21.3749 8.07002 21.513 7.84253 21.6073C7.61505 21.7015 7.37123 21.75 7.125 21.75H4.125C3.62772 21.75 3.15081 21.5525 2.79917 21.2008C2.44754 20.8492 2.25 20.3723 2.25 19.875V10.155C2.25002 9.80172 2.32683 9.45268 2.47511 9.13203C2.62339 8.81139 2.83959 8.5268 3.10875 8.29799L10.4213 2.08274Z" fill="currentColor"></path></svg>