<svg width="142" height="44" viewBox="0 0 142 44" fill="none" xmlns="http://www.w3.org/2000/svg"><path d="M135.75 19C135.75 21.4965 133.977 23.9303 130.634 26.1885C127.3 28.4408 122.459 30.479 116.454 32.1946C104.448 35.625 87.847 37.75 69.5 37.75C51.153 37.75 34.5522 35.625 22.5461 32.1946C16.5413 30.479 11.7001 28.4408 8.36584 26.1885C5.02283 23.9303 3.25 21.4965 3.25 19C3.25 16.5035 5.02283 14.0697 8.36584 11.8115C11.7001 9.55919 16.5413 7.521 22.5461 5.80535C34.5522 2.37504 51.153 0.25 69.5 0.25C87.847 0.25 104.448 2.37504 116.454 5.80535C122.459 7.521 127.3 9.55919 130.634 11.8115C133.977 14.0697 135.75 16.5035 135.75 19Z" stroke="black" stroke-width="0.5"></path><path d="M141.75 19C141.75 21.4965 139.977 23.9303 136.634 26.1885C133.3 28.4408 128.459 30.479 122.454 32.1946C110.448 35.625 93.847 37.75 75.5 37.75C57.153 37.75 40.5522 35.625 28.5461 32.1946C22.5413 30.479 17.7001 28.4408 14.3658 26.1885C11.0228 23.9303 9.25 21.4965 9.25 19C9.25 16.5035 11.0228 14.0697 14.3658 11.8115C17.7001 9.55919 22.5413 7.521 28.5461 5.80535C40.5522 2.37504 57.153 0.25 75.5 0.25C93.847 0.25 110.448 2.37504 122.454 5.80535C128.459 7.521 133.3 9.55919 136.634 11.8115C139.977 14.0697 141.75 16.5035 141.75 19Z" stroke="black" stroke-width="0.5"></path><path d="M138.75 25C138.75 27.4912 136.9 29.9251 133.403 32.1857C129.916 34.4391 124.855 36.4779 118.578 38.1939C106.028 41.6248 88.6762 43.75 69.5 43.75C50.3238 43.75 32.972 41.6248 20.422 38.1939C14.1452 36.4779 9.08376 34.4391 5.59736 32.1857C2.09991 29.9251 0.25 27.4912 0.25 25C0.25 22.5088 2.09991 20.0749 5.59736 17.8143C9.08376 15.5609 14.1452 13.5221 20.422 11.8061C32.972 8.37518 50.3238 6.25 69.5 6.25C88.6762 6.25 106.028 8.37518 118.578 11.8061C124.855 13.5221 129.916 15.5609 133.403 17.8143C136.9 20.0749 138.75 22.5088 138.75 25Z" stroke="black" stroke-width="0.5"></path></svg>